<?xml version="1.0" standalone="no"?>
<!DOCTYPE svg PUBLIC "-//W3C//DTD SVG 1.1//EN" "http://www.w3.org/Graphics/SVG/1.1/DTD/svg11.dtd" >
<svg xmlns="http://www.w3.org/2000/svg" xmlns:xlink="http://www.w3.org/1999/xlink" version="1.1">
<metadata></metadata>
<defs>
<font id="sunnregular" horiz-adv-x="528" >
<font-face units-per-em="2048" ascent="1638" descent="-410" />
<missing-glyph horiz-adv-x="318" />
<glyph unicode="&#xd;" horiz-adv-x="508" />
<glyph horiz-adv-x="0" />
<glyph horiz-adv-x="0" />
<glyph unicode=" "  horiz-adv-x="318" />
<glyph unicode="&#x09;" horiz-adv-x="318" />
<glyph unicode="&#xa0;" horiz-adv-x="318" />
<glyph unicode="!" horiz-adv-x="303" d="M93 58q2 28 22 49q9 10 41 10q30 0 43 -18q14 -20 14 -42q0 -58 -56 -57q-67 2 -64 58zM115 1413q0 28 16 41t40 13q33 0 33 -42q0 -35 -9 -175q-9 -139 -9 -264q0 -114 -3 -265q-2 -156 -2 -193l2 -84q0 -164 1 -163q-50 -45 -54 55q-1 36 11 454q-6 255 -8 330 q-2 76 -18 293z" />
<glyph unicode="&#x22;" horiz-adv-x="282" d="M31 1425q-1 50 28 52q20 2 30 -17q9 -16 5 -69q-6 -101 -9 -124q-12 -84 -25 -83q-25 3 -23 151q0 14 -3 45q-3 32 -3 45zM185 1425q0 50 28 52q20 2 31 -17q8 -16 5 -69q-7 -101 -10 -124q-11 -84 -24 -83q-25 3 -23 151q0 14 -3 45q-3 32 -4 45z" />
<glyph unicode="#" horiz-adv-x="988" d="M55 617q8 18 85 18q163 -8 189 7q17 9 31 136q17 145 8 152q-13 11 -190 0q-84 -5 -87 25q-2 26 28 26q232 1 245 8q15 9 32 124q25 161 25 315q0 45 23 43q26 -3 25 -33q0 -21 -22 -218q-25 -215 -17 -224q6 -7 100 -7q95 0 110 13q10 9 39 223q30 221 30 223 q9 22 30 23q24 0 23 -33q0 -7 -15 -75q-17 -81 -26 -135q-33 -211 -22 -228q6 -9 104 -3q106 6 109 5q26 -6 26 -27q0 -28 -26 -31q1 1 -108 4q-98 2 -110 -6q-20 -15 -34 -146t-2 -145q16 -17 190 1q57 0 55 -30q-3 -29 -43 -29q-198 0 -203 -6q-3 -5 -33 -263 q-9 -74 -19 -214q-8 -112 -11 -123q-6 -18 -28 -13q-22 4 -24 28q-1 11 13 103q4 24 14 140q11 118 17 160q23 149 10 175q-7 15 -116 15q-90 0 -102 -16q-2 -3 -22 -232q-33 -371 -56 -378q-31 -10 -37 36q-2 5 34 249q36 321 26 329q-22 16 -210 -7q-28 0 -46 14 q-17 12 -12 27zM391 646q12 -8 90 -8q103 0 120 12q32 22 35 270q0 21 -37 24h-112q-49 0 -63 -17q-11 -13 -23 -125q-17 -151 -10 -156z" />
<glyph unicode="$" horiz-adv-x="486" d="M70 54q0 24 29 24q-17 0 47 -18q32 -9 60 -2v3l2 185q4 322 7 541q-16 33 -32 64q-92 179 -92 338q0 132 74 205q28 29 60 38q1 69 1 68q8 37 35 20q15 -9 17 -82l10 -2q64 -13 82 -46q11 -20 -8 -30q-7 -4 -32 12q-30 20 -44 23q-4 1 -8 1q0 -85 -9 -220q-1 -11 -6 -352 q68 -133 56 -106q32 -70 70 -204q27 -108 27 -166q0 -106 -53 -222q-36 -78 -98 -104q0 -49 -2 -58q-9 -45 -29 -42q-23 4 -28 42v45q-31 -2 -62 1q-74 8 -74 44zM153 1205q0 -141 64 -286q3 297 4 330q2 77 3 130q-17 -11 -34 -29q-37 -37 -37 -145zM260 617q0 -4 5 -414 q1 -62 1 -108q39 40 49 70q40 112 40 199q0 66 -31 170q-25 88 -63 162q0 -38 -1 -79z" />
<glyph unicode="%" horiz-adv-x="936" d="M71 964q3 -115 11 -150q15 -68 30 -90q30 -43 77 -48l4 -1q37 -2 70 23q20 14 39 49q23 41 39 108q6 26 21 125q11 123 3 236q-2 36 -22 100q-3 10 -4 14q-14 48 -42 73q-24 21 -63 24l-4 1q-41 2 -69 -18q-25 -18 -44 -61q-16 -38 -28 -108q-4 -23 -16 -151 q-3 -36 -2 -126zM123 966q-2 67 9 172q23 249 98 244h1q31 -3 54 -43q7 -12 23 -74q8 -34 8 -89q0 -67 -2 -103l-3 -40q-3 -39 -17 -144q-7 -61 -36 -114q-29 -54 -65 -51q-31 2 -43 37q-7 16 -12 53q-3 17 -5 28q-7 43 -10 124zM178 48q3 18 79 213q142 361 144 367 q177 489 181 501q46 151 78 232q27 69 45 72q31 6 26 -29l-80 -225q-19 -55 -326 -898l-60 -166l-16 -41q-14 -39 -17 -45q-17 -33 -40 -29q-20 4 -14 48zM561 304q1 -115 8 -151q14 -67 29 -90q28 -44 76 -50h4q36 -3 70 21q20 14 40 48q24 41 41 108q7 26 24 124 q13 123 7 236q-2 36 -20 101q-3 10 -4 13q-13 49 -41 74q-23 22 -62 26h-5q-41 4 -69 -16q-25 -18 -45 -60q-17 -38 -30 -108q-4 -23 -18 -150q-4 -36 -5 -126zM613 305q-1 66 13 171q27 249 101 242h2q31 -3 53 -43q7 -12 21 -74q8 -35 7 -90q-1 -67 -4 -103l-4 -40 q-3 -37 -19 -144q-9 -60 -39 -113t-66 -50q-30 3 -42 38q-6 16 -11 54q-2 16 -4 27q-7 43 -8 125z" />
<glyph unicode="&#x26;" horiz-adv-x="895" d="M115 512q19 93 83 213q57 110 60 132q8 69 -1 290v164q0 98 58 117q62 20 104 -28q59 -66 39 -204q-9 -57 -77 -208q-69 -150 -70 -157q-3 -24 10 -62q18 -57 27 -107q31 -194 78 -313q78 -197 130 -190q52 6 56 183q1 34 -23 31q-56 -9 -59 18q-3 26 39 28q58 3 113 8 q28 3 60 10q28 6 40 6q43 1 34 -30q-4 -15 -33 -23q-6 -1 -66 -3q-54 -4 -59 -11q-5 -5 -14 -126q-7 -43 -30 -87q-20 -41 -20 -46q1 -14 43 -43q46 -32 79 -31q28 1 52 6q20 3 27 3q22 -1 22 -20q0 -30 -84 -29q-68 5 -157 71q-16 11 -79 -29q-79 -43 -152 -45 q-67 -1 -128 48q-63 52 -91 118q-56 132 -11 346zM143 373q0 -84 11 -133q12 -49 35 -94q51 -95 160 -95q37 0 97 22q59 25 61 55q1 8 -46 65q-57 69 -95 168q-49 124 -80 332q-7 42 -25 47q-34 9 -85 -169q-33 -114 -33 -198zM295 890q18 -5 82 202q40 124 39 176 q-2 119 -68 119q-51 0 -50 -89q1 -240 0 -224q-9 -182 -3 -184z" />
<glyph unicode="'" horiz-adv-x="118" d="M31 1431q-1 43 24 45q17 1 26 -15q7 -13 4 -60q-5 -86 -8 -106q-10 -73 -21 -72q-22 2 -20 130q0 13 -2 39q-3 28 -3 39z" />
<glyph unicode="(" horiz-adv-x="341" d="M96 818q7 204 28 318q28 148 75 291q48 143 91 144q17 0 15 -29t-29 -78q-120 -212 -133 -571q-19 -546 103 -850q65 -160 65 -151q-1 -19 -14 -25q-12 -5 -24 2q-16 11 -41 71q-74 184 -110 462q-32 248 -26 416z" />
<glyph unicode=")" horiz-adv-x="341" d="M30 -108q0 -9 64 151q123 304 104 850q-13 359 -133 571q-27 49 -29 78q-3 29 15 29q43 -1 91 -144q47 -143 75 -291q21 -114 28 -318q6 -168 -26 -416q-36 -278 -110 -462q-25 -60 -41 -71q-12 -7 -24 -2q-13 6 -14 25z" />
<glyph unicode="*" horiz-adv-x="685" d="M36 1333q-11 -18 6 -45q5 -7 34 -8q190 9 201 -5q6 -7 -77 -172q-47 -99 6 -95q15 0 56 105q48 134 63 133q10 2 100 -176q23 -45 30 -47q36 -2 32 30l-51 93q-68 115 -62 127q0 13 196 -1q88 1 59 44q-13 5 -113 4l-77 2q-70 5 -66 11q-3 4 85 152q20 35 12 70 q-9 15 -22 10q-26 -13 -64 -103q-52 -115 -57 -108q-7 1 -78 155q-29 48 -27 45q-24 26 -47 -1q-14 -19 54 -109l43 -71q19 -35 12 -44q-4 -9 -181 14q-56 7 -67 -10z" />
<glyph unicode="+" horiz-adv-x="829" d="M101 632q-11 -18 5 -42q17 -24 111 -24q149 6 151 -2q7 2 2 -180q2 -42 13 -76q15 -48 40 -26q5 5 5 151q-10 122 2 135q11 4 192 2q117 2 82 46q-17 23 -114 17q-39 -2 -115 -3q-30 0 -39 10q-4 13 5 201q-1 66 -15 74q-19 12 -34 -1q-31 -23 -23 -143q7 -129 -8 -131 l-172 5q-79 3 -88 -13z" />
<glyph unicode="," horiz-adv-x="192" d="M35 -181q-5 7 21 57q31 58 34 90q3 27 -25 70q-22 33 2 66q10 15 38 16q32 0 47 -27q10 -19 7 -80q-4 -58 -37 -118q-16 -30 -47 -58q-32 -29 -40 -16z" />
<glyph unicode="-" d="M67 615q9 14 87 12q154 -4 221 -1q94 5 112 -13q38 -44 -98 -46q-13 0 -97 -4q-80 -4 -111 -4q-92 0 -109 20q-15 21 -5 36z" />
<glyph unicode="." horiz-adv-x="180" d="M33 57q2 27 22 48q8 9 39 9q29 0 42 -18q14 -19 14 -41q0 -56 -55 -55q-65 2 -62 57z" />
<glyph unicode="/" horiz-adv-x="576" d="M91 30q1 18 54 215q100 366 102 371q120 493 123 506q28 152 51 233q19 70 36 75q29 9 29 -26q0 1 -54 -227q-14 -60 -223 -906l-41 -167l-11 -41q-10 -40 -12 -46q-13 -33 -36 -32q-19 1 -18 45z" />
<glyph unicode="0" horiz-adv-x="578" d="M90 603q0 85 5 216q5 137 5 151q1 93 42 288q37 176 148 176q79 0 118 -79q45 -89 55 -219q25 -318 25 -294v-240q0 -85 -22 -234q-29 -196 -65 -276q-44 -100 -123 -91q-71 8 -108 81q-80 154 -80 521zM147 811q-7 -137 1 -255q37 -511 134 -511q62 0 90 99 q35 117 39 189q2 37 11 118q8 70 8 106q3 200 3 225q-2 141 -21 284q-12 177 -35 235q-14 38 -45 61q-37 29 -73 7q-68 -40 -85 -163q-23 -172 -20 -241q0 -8 -7 -154z" />
<glyph unicode="1" horiz-adv-x="455" d="M80 31q4 14 65 15q72 3 79 11q9 10 9 467q0 147 14 733v112q-6 11 -64 -67q-63 -85 -79 -86q-25 -3 -22 29q3 23 76 105q74 83 99 84q34 2 42 -24q12 -39 -6 -256q-6 -80 -11 -510q-3 -279 -1 -343q-12 -232 7 -243q16 -8 42 -8q55 0 55 -23q0 -27 -42 -27l-228 2 q-45 0 -35 29z" />
<glyph unicode="2" horiz-adv-x="455" d="M53 40q3 30 103 230q78 170 147 446q46 180 46 411q0 123 -30 195q-29 71 -79 61q-68 -15 -78 -78q-10 -89 -29 -89q-25 0 -25 34q0 22 18 87q27 97 112 97q69 0 108 -58q35 -51 48 -239q11 -154 -33 -383q-43 -224 -107 -374q-134 -308 -120 -316q10 -12 126 -5 q116 -4 117 -4q28 -3 28 -26q-1 -16 -22 -26q-12 -6 -283 0q-50 0 -47 37z" />
<glyph unicode="3" horiz-adv-x="451" d="M58 92q9 17 25 9q8 -4 33 -22q37 -30 59 -31q59 3 98 57q41 73 46 148q21 226 -1 343q-24 126 -80 163q-43 27 -51 48q-2 12 15 37q38 46 97 188q45 110 9 252q-24 104 -91 98q-58 -4 -82 -87q-14 -63 -32 -74q-26 -14 -27 19q0 62 49 132q43 62 95 62q67 1 100 -39 q30 -36 44 -151q17 -133 -18 -231q-3 -10 -51 -104q-50 -85 -48 -94q0 -6 36 -34q32 -33 46 -62q34 -69 41 -182q6 -95 6 -185q0 -113 -28 -205q-46 -147 -156 -147q-58 0 -100 37t-34 55z" />
<glyph unicode="4" horiz-adv-x="465" d="M78 395q-8 19 15 200q35 514 32 470q-3 -45 12 328q1 42 25 41q28 -1 26 -33q-6 -82 -6 -134q0 -74 -8 -180q-33 -450 -41 -511q-5 -36 -13 -118q-1 -30 16 -36q15 -5 63 -4q52 2 58 11q2 3 2 225q0 98 2 145q1 33 24 29q20 -4 24 -20q2 -8 -2 -105q-4 -115 -4 -151 q1 -119 8 -125q5 -4 61 2q42 4 42 -24q1 -22 -33 -23q-9 -1 -28 1q-16 1 -21 0q-23 -3 -25 -39v-131v-192q-5 -21 -27 -21q-26 0 -26 23q0 13 6 232q5 113 -10 123q0 -1 -112 -1q-53 0 -60 18z" />
<glyph unicode="5" horiz-adv-x="447" d="M72 81q2 23 24 18q13 -5 37 -33q26 -24 60 -28q45 3 87 61q33 47 39 143q10 157 4 277q-7 128 -25 185q-25 84 -66 79q-41 -4 -107 -9q-36 -3 -42 40q-1 31 4 227q0 9 -3 98q-3 79 -1 123q0 117 2 150q2 20 19 22h208q54 0 56 -22q1 -23 -25 -25q-6 0 -104 8 q-93 8 -100 -3q-11 -11 -13 -285q-1 -274 10 -283q4 -4 82 1q71 4 104 -45q41 -61 50 -362q5 -157 -12 -236q-15 -70 -60 -122q-52 -60 -119 -60q-50 0 -84 33q-27 27 -25 48z" />
<glyph unicode="6" horiz-adv-x="450" d="M94 754q3 52 5 135q1 62 5 103q4 47 10 123q4 67 8 103q12 111 51 178q25 41 79 38q51 -4 81 -41q41 -53 43 -130q0 -29 -12 -40q-11 -10 -23 -2q-5 3 -9 54q-4 56 -20 79q-55 82 -104 25q-31 -37 -46 -167q-41 -366 -19 -390q6 -8 56 8q55 12 96 -16q53 -35 70 -160 q6 -39 12 -173q2 -44 2 -208q1 -156 -52 -224q-40 -52 -92 -49q-66 3 -98 77q-22 51 -34 310q-13 280 -9 367zM142 700q-16 -247 20 -496q14 -100 25 -118q26 -47 67 -33q66 22 73 143q11 216 5 317q-9 131 -17 176t-37 71q-27 25 -81 12q-52 -12 -55 -72z" />
<glyph unicode="7" horiz-adv-x="399" d="M70 1399q0 13 18 21q61 28 207 2q34 -6 30 -34q0 -3 -5 -29q-5 -23 -6 -39q-1 -9 -7 -50q-5 -37 -7 -64q-13 -150 -71 -569q-66 -469 -79 -552q-14 -84 -31 -85q-26 -1 -28 16q0 4 17 90q0 2 14 62q12 51 17 91q-1 -2 30 208q46 318 48 343q8 77 22 238q12 138 15 156 q24 152 20 171q-3 18 -69 14q-77 -9 -106 -9q-29 1 -29 19z" />
<glyph unicode="8" horiz-adv-x="423" d="M75 249q14 255 84 476q34 87 32 93q1 6 -24 91q-76 282 -71 378q5 84 53 126q28 25 80 20q33 -3 55 -19q20 -16 30 -42q20 -51 17 -113q-7 -113 -55 -309q-37 -118 -35 -126q0 -2 20 -69q92 -336 92 -575q0 -92 -52 -144q-38 -38 -101 -36q-69 3 -102 89q-28 74 -23 160z M117 221q-1 -51 19 -103q23 -55 57 -62q55 -12 88 29q28 37 32 95q5 84 -59 468q-14 77 -35 78q-40 0 -74 -198q-24 -145 -28 -307zM137 1291q-4 -65 17 -185q37 -216 64 -219q12 -1 42 144q26 135 29 177q4 92 -3 117q-12 41 -43 57q-22 12 -52 1q-50 -19 -54 -92z" />
<glyph unicode="9" horiz-adv-x="458" d="M70 1103q0 144 45 243q16 35 42 58q28 22 57 28q36 6 72 -6q33 -12 57 -57q25 -45 22 -284v-279l1 -71l-9 -527q6 -97 -9 -127q-16 -33 -42 -54q-31 -27 -85 -27q-34 0 -90 40q-32 23 -34 42q-3 34 30 18q4 -2 18 -14q16 -15 27 -22q40 -27 75 -16q69 23 69 111l12 466 q0 19 -4 81q-4 63 -28 68q-155 28 -194 108q-32 63 -32 221zM122 1121q0 -141 7 -172q15 -68 70 -93q84 -41 111 -22q14 9 13 430q0 50 -26 94q-18 29 -59 29q-40 0 -64 -31q-23 -31 -33 -78q-19 -90 -19 -157z" />
<glyph unicode=":" horiz-adv-x="301" d="M93 126q2 28 22 48q9 10 39 10t43 -18q14 -20 14 -42q0 -56 -55 -55q-66 2 -63 57zM93 826q2 28 22 49q9 9 39 9t43 -17q14 -20 14 -42q0 -57 -55 -56q-66 2 -63 57z" />
<glyph unicode=";" horiz-adv-x="312" d="M95 -116q-5 7 21 57q31 57 34 89q3 28 -25 70q-22 34 2 67q10 14 38 15q31 0 46 -27q11 -19 7 -79q-3 -58 -36 -118q-16 -31 -47 -58q-32 -29 -40 -16zM101 815q2 28 21 48q9 9 40 9q30 0 42 -17q14 -20 14 -42q0 -56 -55 -55q-65 2 -62 57z" />
<glyph unicode="&#x3c;" horiz-adv-x="502" d="M80 717q-10 -23 181 -225l66 -82l17 -20q16 -20 19 -23q18 -16 38 -13q31 5 13 51q-5 9 -107 129q-168 175 -162 179q-7 29 163 230q63 72 91 114q24 35 15 43q-27 21 -51 5l-86 -113q-201 -248 -197 -275z" />
<glyph unicode="=" horiz-adv-x="634" d="M106 829q9 11 86 9q154 -5 222 -2q94 4 111 -13q39 -39 -97 -40q-13 0 -97 -3q-80 -2 -111 -2q-92 0 -108 19q-16 18 -6 32zM109 599q-39 39 96 39q14 1 98 3q80 3 111 3q92 0 108 -19q16 -18 6 -32q-9 -11 -86 -9q-154 5 -222 2q-94 -4 -111 13z" />
<glyph unicode="&#x3e;" horiz-adv-x="502" d="M88 405q-18 -46 13 -51q20 -3 38 13q3 3 19 23l17 20l66 82q191 202 181 225q4 27 -197 275l-86 113q-24 16 -51 -5q-9 -8 15 -43q28 -42 91 -114q170 -201 163 -230q6 -4 -162 -179q-102 -120 -107 -129z" />
<glyph unicode="?" horiz-adv-x="501" d="M53 1286q5 62 96 125q37 26 97 32q76 8 116 -37q69 -69 69 -238q0 -90 -84 -266q-65 -137 -69 -217q-5 -85 -5 -176q0 -47 1 -106v-60q0 -43 -27 -57q-28 -14 -28 42v166q1 117 7 203q6 109 50 196q96 190 100 260q9 138 -56 204q-50 63 -149 -1q-29 -18 -55 -67 q-23 -44 -31 -45q-35 -7 -32 42zM184 57q2 27 22 48q9 9 39 9t42 -17q14 -20 14 -42q0 -56 -55 -55q-65 2 -62 57z" />
<glyph unicode="@" horiz-adv-x="927" d="M90 758q0 370 88 537q89 168 250 157q157 -10 248 -103q97 -100 123 -205q23 -96 31 -228q7 -140 7 -271q0 -366 -127 -362q-27 1 -73 72q-40 60 -48 43q-72 -155 -194 -136q-172 25 -137 467q23 287 62 356q54 94 134 93q75 0 114 -71q63 -115 68 -465q1 -52 -7 -115 q-5 -48 -2 -59q9 -33 38 -80q38 -59 62 -48q40 17 56 334q19 381 -85 566q-93 163 -274 163q-130 0 -193 -121q-53 -101 -74 -227q-24 -147 -27 -313q-3 -115 25 -317q17 -122 47 -202q73 -193 206 -198q161 -5 298 125q33 35 40 40q31 17 23 -23q-6 -34 -68 -83 q-59 -47 -117 -69q-106 -41 -176 -35q-206 16 -270 272q-47 189 -48 506zM310 601q11 -285 111 -288q99 -3 148 183q8 30 12 237q2 117 -18 236q-15 82 -29 110q-26 51 -84 49q-114 -4 -128 -285q-16 -155 -12 -242z" />
<glyph unicode="A" horiz-adv-x="546" d="M40 25q-2 2 -2 13q0 45 34 244q7 44 31 236q23 187 39 278q6 38 53 345q10 73 18 107q9 35 21 78q30 108 54 108q29 0 50 -60q38 -111 50 -189q47 -258 49 -281q4 -36 10 -96q12 -112 20 -186q30 -288 49 -556v-20q0 -19 -6 -27q-10 -16 -28 -18q-40 -4 -37 18 q10 65 10 131q0 103 -25 206q-10 21 -100 32q-30 3 -57 3q-64 0 -111 -18q-24 -17 -33 -68q-27 -126 -30 -199q1 -18 0 -33q0 -70 -11 -73q-28 -4 -48 25zM149 521q-6 -33 -6 -53q0 -32 15 -33q62 -2 109 -2q152 0 154 22v25q0 190 -42 503q-47 341 -85 341h-2 q-10 -3 -38 -173q-4 -19 -24 -120q-22 -104 -34 -172q-13 -73 -29 -199q-14 -119 -18 -139z" />
<glyph unicode="B" horiz-adv-x="534" d="M96 16q-1 5 -1 30q0 93 17 462l-13 791q0 83 4 101q8 34 44 34q129 0 196 -83q67 -82 67 -201v-20q-5 -115 -69 -223q-63 -86 -63 -95q0 -6 38 -29q48 -30 77 -70q87 -120 87 -295q0 -47 -6 -99q-20 -140 -111 -247q-42 -50 -81 -64q-24 -8 -97 -8q-85 0 -89 16zM149 59 q36 -16 69 -16q68 0 124 69q80 101 88 221q2 31 2 59q0 260 -163 372q-29 19 -68 22q-39 2 -38 -14v-32q0 -103 -13 -390q-10 -144 -9 -217q-1 -69 8 -74zM157 1289q-2 -150 -2 -251q0 -202 9 -208q11 -7 24 -7q41 0 96 76q38 60 57 115q24 74 24 137q0 91 -51 160 q-51 68 -124 68q-33 0 -33 -90z" />
<glyph unicode="C" horiz-adv-x="594" d="M90 869q0 284 70 449q25 60 87 94q40 22 82 22q35 0 71 -15q88 -36 112 -113q9 -30 9 -50q0 -21 -10 -31q-8 -8 -23 -2q-16 7 -15 23v8q0 113 -143 127q-102 -2 -141 -115q-43 -119 -50 -204q-7 -90 -7 -312q0 -42 6 -144q8 -141 10 -200q8 -196 60 -276q47 -69 109 -69 q35 0 75 22q102 57 103 133q1 28 19 28q13 0 35 -14q9 -9 9 -25q0 -36 -48 -106q-74 -99 -193 -99q-111 0 -168 116q-59 119 -59 753z" />
<glyph unicode="D" horiz-adv-x="592" d="M165 1436h22q104 0 177 -70q51 -49 93 -180q65 -177 65 -510q0 -167 -16 -268q-35 -221 -125 -337q-52 -66 -166 -70q-17 -1 -31 -1q-68 0 -81 16q-3 1 -3 78q0 137 10 515q0 22 -2 195q-2 145 -3 230q0 89 -4 239q-10 115 -10 135q0 28 74 28zM151 1038q0 -32 6 -133 q7 -102 7 -188q-10 -346 -10 -507q0 -135 7 -138q29 -17 59 -18q53 0 111 55q65 68 106 201q45 148 45 360q0 58 -3 122q-27 595 -286 595h-3q-37 -1 -39 -21v-328z" />
<glyph unicode="E" horiz-adv-x="478" d="M99 1309q-1 17 -1 32q0 89 46 91q54 2 90 2t56 -2q6 -1 32 -1q27 0 42 -1q51 -4 42 -27q-6 -14 -91 -14q-20 0 -45 1h-22q-100 0 -98 -26l-4 -290q10 -232 16 -247q0 -5 28 -5q31 0 95 6q17 0 31 -29q14 -28 -7 -27q-46 2 -72 2q-19 0 -27 -1q-50 -8 -50 -29 q-14 -492 -14 -561v-7q1 -108 18 -123q10 -8 67 -7q26 0 63 1q21 1 38 1q95 0 92 -32q2 -16 -132 -16q-38 0 -88 1h-34q-61 0 -64 6q-4 5 -4 79v33v48.5v99.5q2 141 2 188q-2 684 -5 854z" />
<glyph unicode="F" horiz-adv-x="436" d="M99 1309q-1 17 -1 32q0 89 46 91q54 2 90.5 2t55.5 -2q6 -1 29 -1q25 1 38 0q48 -4 49 -29q0 -17 -126 -17q-126 -1 -124 -30l1 -281q8 -232 16 -247q6 -6 35 -7q31 0 88 8q32 2 34 -28q2 -29 -22 -28q-38 2 -61 2q-17 0 -26 -1q-50 -8 -50 -29q-14 -493 -14 -561v-7 q0 -23 1 -84q1 -57 1 -65q0 -24 -18 -27q-17 -2 -26 12q-3 5 -6 104v10q0 30 3 134q3 141 3 194q-2 685 -16 855z" />
<glyph unicode="G" horiz-adv-x="668" d="M118 1028q16 250 108 346q57 60 130 60q41 0 88 -19q68 -28 83 -75q13 -43 -18 -37q-10 2 -25 21q-19 23 -44 37q-49 27 -89 27q-124 0 -169 -250q-14 -81 -14 -365q-5 -153 -5 -245v-48q4 -111 11 -191q10 -109 50 -174q37 -60 150 -60q121 0 155 79q12 29 12 108 q0 32 -2 73q-3 62 -21 62t-75 -7q-43 0 -43 31q0 18 55 30q40 8 90 8q53 0 53 -75v-335q0 -29 -24 -29q-37 0 -37 48q-1 15 -17 2q-27 -21 -32 -23q-50 -20 -95 -22h-20q-126 0 -175 47q-59 55 -77 203q-16 179 -16 383q0 185 13 390z" />
<glyph unicode="H" horiz-adv-x="531" d="M96 151v52v76v86.5v50.5q-2 302 -2 516q0 357 6 470q2 29 23 31q22 3 23 -23q2 -51 2 -127q-8 -200 -8 -312q0 -131 11 -139q18 -13 120 -15q11 0 20 -1q87 0 98 17q8 10 8 209q0 137 -4 365q0 27 20 27q23 0 23 -65v-6q0 1 -3 -68q-2 -64 -2 -142q0 -197 3 -607 q7 -192 7 -499q0 -20 -8 -33q-8 -14 -26 -14q-27 0 -27 41q14 459 14 631q0 90 -4 102t-60 12h-24q-146 0 -156 -22q-1 -3 -1 -23q0 -35 3 -121v-237q-3 -47 -2 -355q0 -28 -19 -28q-24 0 -31 22q1 -3 -4 129z" />
<glyph unicode="I" horiz-adv-x="240" d="M91 1389q-1 42 21 43q14 1 21.5 -10t6.5 -27q0 -7 -5 -197q0 -379 5 -456q5 -67 5 -583q0 -38 2 -75q3 -33 3 -59t-14 -26q-15 -4 -29 0q-14 8 -13.5 23l1.5 45q0 18 1 41q2 100 2 131q0 22 2 76q1 32 1 55v21q0 -3 1 127v43q0 85 -3 156q-3 89 -5 200q-2 133 -2 137 l2 198q-2 128 -3 137z" />
<glyph unicode="J" horiz-adv-x="416" d="M52 36q1 15 33 26q47 15 78 43q73 65 73 221q0 29 -1 110q-1 83 -1 139q0 230 -6 315q-32 475 -52 486q-10 5 -42 5q-22 0 -54 -2q-11 0 -18 8q-7 9 -7 20q0 27 254 27q13 0 21 -8q16 -16 5 -37q-6 -12 -52 -10q-48 2 -51 -3q-3 -3 -3 -19q0 -20 4 -58q1 -9 16 -231 q1 -22 12 -121q10 -101 16 -197q5 -65 12 -356q1 -28 1 -52q0 -114 -12 -151q-19 -62 -63 -109q-77 -82 -123 -82q-42 0 -40 36z" />
<glyph unicode="K" horiz-adv-x="544" d="M90 92q0 22 3 104q4 88 5 170q0 64 4 181q4 108 4 126q-1 22 -8 367q-8 341 -8 354q0 28 29 37q30 10 36 -9q2 -4 2 -27q0 -49 -10 -184q-10 -166 -10 -257q0 -110 14 -109h2q15 2 116 205q26 55 62 128q37 76 49 101q76 152 99 153q29 0 29 -30q-2 -13 -27 -55 q-31 -53 -36 -64q-8 -17 -38 -69t-36 -65q-172 -326 -167 -346q1 -32 123 -359q42 -111 116 -258q62 -124 65 -141q6 -39 -22 -45q-17 -3 -38 39q-76 149 -149 350q-135 370 -143 370q-7 0 -7 -187q-1 -287 -7 -362q0 -31 -1 -133q-2 -77 -23 -77q-28 0 -28 92z" />
<glyph unicode="L" horiz-adv-x="436" d="M99 126q6 77 9 857v32q0 56 -2 160q-3 129 -3 143q3 99 6 104q9 14 26 12q18 -3 18 -27q0 -8 -1 -65q-1 -61 -1 -84q0 -17 7 -189q7 -196 9 -291q1 -39 1 -81q0 -148 -11 -336l-1 -281q-2 -30 124 -30t126 -18q-1 -25 -49 -28q-13 -1 -38 -1q-13 1 -29 0 q-19 -2 -55.5 -2.5t-90.5 2.5q-46 2 -46 91q0 15 1 32z" />
<glyph unicode="M" horiz-adv-x="735" d="M90 780l5 473q-1 99 -1 137v24q3 20 25 20q20 0 26 -13q2 -2 31 -89q33 -96 51 -142q75 -191 97 -255q32 -95 47 -95q3 0 6 4q41 76 71 159q68 186 75 210q9 30 32 114q19 72 25 87q9 21 32 20t29 -16q2 -4 2 -21q0 -25 -4 -80q-8 -113 -8 -145q0 -40 3 -157 q3 -150 4 -240q4 -309 4 -339q0 -165 -1 -171v-131q0 -112 -8 -123q-10 -13 -26 -11q-23 4 -23 20v40v98l4 624q2 129 2 195q0 44 -1 59q-3 145 -10 145h-1q-18 -11 -89 -197q-63 -165 -62 -165v1q-40 -89 -61 -89q-27 0 -116 248q-76 209 -94 209q-3 0 -5 -6 q-11 -38 -11 -370l6 -597l9 -165q0 -49 -30 -49q-33 0 -33 114l5 285z" />
<glyph unicode="N" horiz-adv-x="632" d="M90 92l3 667v245q2 308 2 350q0 79 31 80h1l55 -102q2 -7 54 -224q52 -221 61 -253q6 -26 32 -116q28 -99 45 -159q18 -66 41 -158q24 -93 26 -101q40 -147 48 -147q1 0 1 1q3 7 3 121l-8 602l-6 289q-1 180 -1 205q1 39 25 39q31 0 31 -66q0 -56 -2 -722q0 -39 4 -201 q0 -12 0.5 -31.5t-0.5 -47.5q-1 -63 -1 -83q5 -82 5 -119q0 -16 -1 -24q-5 -80 -8 -92q-10 -45 -36 -45q-20 0 -53 116q-183 655 -196 724q-69 337 -71 348q-9 39 -20 70q-14 37 -16 12q-1 -7 -1 -19q0 -24 3 -69q5 -80 5 -103v-512q0 -155 2 -286q4 -153 4 -217 q0 -45 -2 -45q-10 -16 -29 -18q-18 -1 -24 10q-7 13 -7 81z" />
<glyph unicode="O" horiz-adv-x="595" d="M72 774q7 249 11 294q12 137 35 211q24 81 60 117q38 38 100 38h6q58 -1 95 -35q44 -40 69 -128q47 -162 53 -215q19 -174 19 -363q0 -47 -1 -96q-16 -203 -22 -243q-19 -130 -52 -212q-27 -66 -55 -94q-47 -48 -102 -48h-4q-70 3 -117 75q-25 39 -55 165q-15 66 -31 289 q-9 147 -9 221v24zM128 876q-3 -110 -2 -191q0 -94 3 -148q13 -162 30 -247q29 -142 35 -160q29 -77 90 -79h2q69 0 116 121q43 113 51 236q12 211 13 285q0 29 1 80q0 71 -6 203q-6 110 -24 179q-32 121 -46 147q-46 84 -107 85h-2q-141 0 -154 -511z" />
<glyph unicode="P" horiz-adv-x="474" d="M92 65l8 338l-1 387q0 158 -3 251q-1 35 -1 72v38q1 60 1 66q-2 44 -2 68q-2 27 -2 53q0 33 3 66q3 30 53 30q62 0 115 -32q45 -25 84 -80q49 -87 53 -166v-22q0 -77 -24 -158q-36 -120 -132 -163q-86 -40 -96 -57q-2 0 -2 -74q0 -137 8 -528q-1 -132 -5 -139 q-13 -20 -35 -14t-22 64zM132 1097q1 -262 9 -268q7 -4 16 -4q34 0 102 55q88 72 98 197q1 17 1 34q0 88 -35 167q-32 74 -109 102q-21 8 -37 8q-24 0 -36 -17q-9 -11 -9 -274z" />
<glyph unicode="Q" horiz-adv-x="595" d="M72 774v-24q0 -74 9 -221q16 -223 31 -289q30 -126 55 -165q47 -72 117 -75q46 3 45 -9q2 -8 3 -37q2 -45 13 -87q5 -25 18 -41q18 -20 33.5 -7.5t2.5 35.5q-10 20 -17 55q-6 31 -7 52q-3 38 -3 54q0 9 1 11q4 8 17 22q28 28 55 94q33 82 52 212q6 40 22 243q1 48 1 95 q0 190 -19 364q-6 53 -53 215q-25 87 -70 128q-36 33 -94 35h-3q-64 0 -103 -39q-36 -36 -60 -116q-23 -74 -35 -211q-4 -45 -11 -294zM128 875q13 512 154 512h2q61 -2 107 -86q13 -25 46 -146q18 -70 23 -179q6 -115 6 -184v-19v-80q-1 -74 -13 -285q-7 -104 -53 -223 q-46 -121 -116 -121h-2q-64 2 -88 66q-6 18 -35 160q-17 84 -30 246q-4 54 -4 148q0 81 3 191z" />
<glyph unicode="R" horiz-adv-x="474" d="M94 1285q0 -24 2 -68q0 -6 -1 -66v-38q0 -37 1 -72q6 -163 6 -244l6 -395l-13 -337q0 -58 22 -64t35 14q4 7 5 139q-12 404 -12 536q0 70 3 64q4 0 47 -167q38 -130 48 -173q21 -94 48 -180q11 -33 32 -110q19 -68 23 -79q18 -45 32 -45q32 0 32 30q0 13 -6 32 q-119 372 -123 389q-85 308 -85 325q0 20 50 43q93 49 130 157q24 80 24 158v22q-4 79 -53 166q-39 55 -84 80q-53 32 -115 32q-50 0 -52 -30q-4 -35 -4 -71q0 -24 2 -48zM143 1100v86q0 176 7 185q11 17 34 17q15 0 36 -8q74 -28 104 -102q34 -79 34 -167q0 -17 -1 -34 q-9 -120 -89 -193q-66 -52 -99 -52q-9 0 -16 4q-9 5 -10 264z" />
<glyph unicode="S" horiz-adv-x="447" d="M50 46q0 24 29 24q14 -1 48 -18q18 -5 35 -5q44 0 79 35q43 43 55 75q39 113 39 199q0 66 -30 171q-27 91 -65 167q-41 78 -77 151q-92 179 -92 339q0 132 74 205q43 45 96 46q14 0 28 -4q64 -13 82 -47q10 -19 -8 -29q-7 -5 -32 12q-30 19 -44 23q-7 2 -14 2 q-39 0 -83 -47q-37 -38 -37 -146q0 -163 85 -331q75 -145 81 -157q32 -70 71 -204q27 -108 27 -167q0 -106 -54 -222q-51 -110 -153 -117q-13 -1 -26 -1q-20 0 -40 2q-74 8 -74 44z" />
<glyph unicode="T" horiz-adv-x="477" d="M63 1421q4 13 88 14q35 0 85 -3q86 2 131 2h25q35 0 35 -18q0 -26 -20 -28h-30h-54q-35 0 -44 -6q-20 -14 -20 -184q0 -379 5 -456q6 -89 6 -286q0 -118 -2 -275q0 -25 3 -67q5 -51 5 -54q2 -47 -11 -56q-8 -7 -37 -2q-13 2 -11 43l3 64v-1q2 100 2 131q0 22 2 76 q1 32 1 55v21q0 10 1 127v54q0 79 -2 146q-4 88 -6 200q-2 132 -2 137l2 197q0 121 -6 129q-3 8 -44 8q-32 0 -88 -5q-30 -2 -17 37z" />
<glyph unicode="U" horiz-adv-x="623" d="M90 468v445q0 122 2 262q1 40 1 88q1 40 1 45q0 12 -2 45q-2 35 -2 46q0 36 28 33q30 -2 33 -36v1q-1 0 -1 -104q-8 -382 -8 -540q0 -66 1 -93q13 -281 13 -284q13 -120 25 -164q21 -75 55 -108q49 -47 93 -47h5q59 4 85 39q46 62 59 191q2 26 2 79t-2 133l-1 116 q-3 147 -3 230v37q1 51 1 224q-9 265 -10 286q-2 42 31 42q24 0 31 -30q4 -17 4 -95q0 -31 -1 -72q-1 -66 -4 -306q1 -352 1 -369l1 -249v-21q0 -197 -92 -262q-42 -30 -115 -30q-68 0 -123 61q-48 53 -77 147q-26 89 -31 260z" />
<glyph unicode="V" d="M31 1402q-1 15 12 24t25 4q28 -10 41 -59q5 -15 18 -125q2 -27 11 -131q11 -130 33 -287q83 -572 102 -609q2 -5 5 -5l23 114q0 3 21 136q24 143 39 275q29 244 49 469q8 114 17 189q5 41 35 36q26 -3 32 -26q1 -4 1 -10q0 -26 -13 -99q-43 -247 -86 -652 q-42 -403 -85 -610q-8 -36 -37 -36q-20 0 -30 22q0 -2 -80 533q-21 136 -52 360q-25 181 -37 248q-12 74 -29 161q-14 72 -15 78z" />
<glyph unicode="W" horiz-adv-x="734" d="M93 998v171v131q0 112 9 123q9 13 25 11q17 -2 23 -20q1 -7 1 -66v-72l-5 -623q-1 -108 -1 -171.5t1 -83.5q1 -146 9 -146q22 0 98 277q11 43 34 121q22 76 28 97q24 91 49 91q27 0 92 -245q27 -98 69 -220q43 -125 55 -125q2 0 3 4q11 38 11 370l-6 597l-9 165 q0 49 30 49q33 0 33 -114l-5 -284l7 -381l-5 -473q3 -101 3 -139q0 -19 -1 -22q-3 -20 -25 -20q-21 0 -27 13q-24 52 -76 227q-11 40 -44 145q-29 92 -38 126q-56 201 -72 201q-2 0 -3 -3q-27 -60 -65 -231q-30 -137 -71 -270q-32 -102 -66 -188q-8 -21 -32 -20 q-23 1 -28 16q-2 4 -2 21q0 25 4 80q7 113 7 145q0 40 -2 157q-3 150 -4 240q-4 309 -4 339z" />
<glyph unicode="X" horiz-adv-x="447" d="M52 25q6 45 25 115q6 20 17 94q14 91 25 145q13 64 23 142q12 90 13 97q30 168 30 186q0 4 -52 259q-12 58 -58 245q-20 84 -20 98q0 38 40 24q26 -12 73 -315q35 -219 54 -257q1 -1 2 -1q15 0 53 237q41 269 49 293q12 47 36 47q16 0 23 -25q6 -23 0 -39 q-23 -55 -63 -264q-58 -296 -58 -313q0 -81 122 -684q11 -49 11 -78q0 -30 -22 -30q-33 0 -33 24v-1q-2 0 -46 312q-58 406 -73 406q-1 0 -3 -3q-3 -20 -63 -367q-16 -90 -27 -183q-6 -62 -10 -88q-14 -79 -22 -90q-9 -12 -28 -11q-20 2 -18 25z" />
<glyph unicode="Y" horiz-adv-x="445" d="M54 1408q7 34 40 23q24 -8 74 -317q41 -253 49 -269q1 -2 2 -2q13 0 58 251q52 301 50 293q11 47 36 47q23 0 23 -40q0 -15 -3 -35q-3 -16 -30 -132q-29 -124 -38 -173q-10 -48 -40 -167q-29 -111 -32 -135q-6 -38 -6 -188q0 -67 1 -156q1 -42 5 -212q4 -162 4 -166 q0 -30 -21 -30q-35 0 -35 35v-4l-1 102q-1 69 -1 127v56q1 78 1 165q0 116 -2 248q-1 72 -55 333q2 -6 -57 226q-23 89 -23 114q0 4 1 6z" />
<glyph unicode="Z" horiz-adv-x="451" d="M50 29q0 17 46 181q10 36 91 406q87 402 104 510q50 220 50 250q0 4 -1 5q-8 11 -65 11q-43 0 -114 -6q-80 0 -82 14q-3 26 10 30h49l200 4q55 0 55 -32q0 -14 -14 -71q-13 -55 -19 -86q-4 -24 -37 -197q-37 -190 -62 -330q-60 -329 -131 -549q-17 -54 -17 -84 q0 -23 10 -31q8 -6 57 -6q35 0 92 3q115 0 120 -15q9 -25 -25 -33q-14 -3 -117 -3q-62 0 -156 1q-44 0 -44 28z" />
<glyph unicode="[" horiz-adv-x="371" d="M96 495q1 131 1 439q8 319 0 479q-3 42 23 60q17 13 110 4q88 -8 103 -16q10 -6 3 -18t-28 -11q-31 1 -109 5q-67 -3 -65 -38q14 -252 9 -643q-4 -348 2 -506q-9 -246 -4 -248q3 -5 93 -4q114 0 116 -34q1 -21 -42 -24q-82 -4 -127 0q-83 9 -84 17q-7 136 0 261 q6 157 -1 277z" />
<glyph unicode="\" horiz-adv-x="457" d="M31 1404q-1 35 29 26q16 -5 36 -75q22 -81 51 -233q2 -13 123 -506q1 -5 101 -371q54 -197 55 -215q1 -44 -19 -45q-22 -1 -35 32q-2 6 -13 46l-10 41l-42 167q-208 846 -222 906q-54 228 -54 227z" />
<glyph unicode="]" horiz-adv-x="371" d="M22 -36q1 34 115 34q90 -1 94 4q4 2 -5 248q7 158 2 506q-5 391 9 643q2 35 -64 38q-79 -4 -110 -5q-21 -1 -28 11t4 18q14 8 102 16q93 9 111 -4q25 -18 23 -60q-9 -160 -1 -479q1 -308 1 -439q-6 -120 -1 -277q7 -125 0 -261q-1 -8 -84 -17q-44 -4 -127 0q-43 3 -41 24 z" />
<glyph unicode="^" horiz-adv-x="662" d="M62 1205q-12 -20 4 -42q5 -9 41 5q30 23 85 75q119 128 151 131q27 2 136 -123q71 -87 78 -90q50 -14 53 12q2 17 -9 31q-3 3 -17 16l-15 14l-60 55q-146 157 -164 149q-20 3 -201 -162z" />
<glyph unicode="_" d="M40 54q9 14 87 12q154 -4 221 -1q94 5 112 -13q38 -44 -98 -46q-13 0 -97 -4q-80 -4 -111 -4q-92 0 -109 20q-15 21 -5 36z" />
<glyph unicode="`" horiz-adv-x="240" d="M30 1431q0 22 19 30q25 12 49 -32q6 -12 19 -41q12 -28 19 -41q74 -129 53 -143q-11 -8 -61 61q-14 18 -69 103q-28 45 -29 63z" />
<glyph unicode="a" horiz-adv-x="501" d="M39 23q-2 2 -2 12q0 41 31 221q6 40 28 214q21 170 35 252q6 35 48 313q10 66 17 97q8 32 19 71q27 98 49 98q26 0 45 -54q35 -101 46 -172q42 -234 44 -255q4 -33 9 -87q11 -102 18 -169q27 -261 45 -504v-18q0 -18 -6 -25q-9 -14 -25 -16q-36 -4 -34 16q9 60 9 120 q0 93 -22 186q-9 19 -91 29q-27 3 -51 3q-58 0 -101 -17q-22 -15 -30 -61q-25 -115 -28 -181q1 -17 0 -32q0 -62 -10 -64q-25 -4 -43 23zM138 473q-6 -30 -6 -49q0 -28 14 -29q59 -2 104 -2q134 0 134 20v25q0 172 -38 454q-42 309 -77 309h-2q-9 -3 -34 -157 q-4 -17 -22 -109q-20 -94 -31 -156q-11 -66 -26 -180q-13 -108 -16 -126z" />
<glyph unicode="b" horiz-adv-x="495" d="M96 14q-1 5 -1 31q0 87 15 415l-11 716q0 75 3 91q7 31 40 31q117 0 177 -75q61 -74 62 -181q0 -10 -1 -19q-4 -104 -62 -202q-57 -78 -57 -86q0 -5 34 -26q43 -27 70 -64q79 -108 79 -267q0 -43 -6 -89q-18 -127 -100 -224q-38 -45 -74 -58q-21 -7 -88 -7q-77 0 -80 14z M144 53q32 -15 62 -15q62 0 113 63q72 92 79 200q2 27 2 53q0 236 -148 338q-26 17 -61 19t-34 -12v-22q0 -90 -12 -360q-9 -131 -8 -197q-1 -63 7 -67zM151 1167q-2 -136 -2 -228q0 -183 8 -188q10 -6 21 -6q38 0 88 69q34 54 52 104q22 67 22 123q0 83 -47 146 q-46 61 -112 61q-30 0 -30 -81z" />
<glyph unicode="c" horiz-adv-x="549" d="M90 788q0 258 64 408q22 54 78 85q37 20 75 20q32 0 64 -14q80 -32 102 -102q8 -27 8 -45q0 -19 -9 -29q-7 -7 -21 -1t-14 20v8q0 102 -129 115q-93 -2 -128 -104q-39 -108 -46 -185q-6 -82 -6 -284q0 -38 6 -130q7 -128 9 -182q7 -177 54 -250q42 -63 99 -63q32 0 68 20 q93 52 93 121q1 26 17 26q12 0 32 -13q9 -9 9 -23q0 -33 -44 -96q-67 -90 -175 -90q-101 0 -152 105q-54 108 -54 683z" />
<glyph unicode="d" horiz-adv-x="551" d="M157 1302q10 0 21 -1q94 0 160 -63q47 -45 85 -163q58 -161 58 -463q0 -151 -14 -242q-32 -201 -113 -306q-47 -59 -151 -63q-16 -1 -29 -1q-60 0 -72 15q-3 1 -3 72q0 125 9 465q0 20 -2 176q-1 132 -2 209q0 80 -4 216q-9 104 -9 122q0 27 66 27zM145 940q0 -29 6 -120 q6 -92 6 -170q-9 -317 -9 -462q0 -120 6 -123q26 -15 53 -16q49 0 101 50q59 61 96 182q42 135 42 330q0 51 -3 107q-25 539 -260 539h-2q-34 -1 -36 -19v-298z" />
<glyph unicode="e" horiz-adv-x="446" d="M98 1187q-1 15 -1 28q0 81 42 83q48 2 81.5 2t50.5 -2q5 -1 29 -1q25 0 38 -1q46 -3 38 -24q-5 -12 -87 -12h-36h-22q-89 0 -87 -23l-4 -263q10 -211 15 -224q0 -4 26 -5q28 0 86 6q15 0 28 -27q12 -25 -7 -24q-41 2 -64 2q-17 0 -25 -1q-46 -7 -46 -27 q-13 -475 -13 -514q1 -98 17 -112q9 -7 58 -7q25 0 60 2q18 1 33 1q88 0 85 -30q2 -14 -115 -14q-37 0 -85 1h-34q-52 0 -55 5t-3 67v35q0 10 -0.5 44t0.5 90q1 128 1 170q-1 621 -4 775z" />
<glyph unicode="f" horiz-adv-x="406" d="M98 1188q-1 15 -1 28q0 80 42 83q49 2 82 2t50 -2q6 -1 26 -1q23 1 35 0q44 -3 44 -26q0 -15 -114 -15q-114 -1 -112 -28l1 -255q7 -210 14 -224q5 -6 31 -6q28 0 81 7q29 2 30 -25q2 -27 -20 -26q-34 2 -55 2q-15 0 -23 -1q-46 -7 -46 -26q-12 -443 -12 -507v-8v-77 q1 -51 1 -59q0 -21 -16 -24q-15 -2 -24 11q-2 4 -5 94v9q0 28 3 122q2 128 2 176q-1 621 -14 776z" />
<glyph unicode="g" horiz-adv-x="621" d="M116 933q14 226 98 314q51 54 118 54q37 0 80 -17q61 -26 75 -68q12 -39 -16 -34q-10 2 -23 19q-17 21 -40 34q-44 24 -81 24q-112 0 -153 -227q-13 -73 -13 -331q-5 -133 -5 -216q0 -28 1 -50q3 -100 10 -173q9 -99 45 -158q34 -54 136 -54q110 0 141 72q11 26 11 99 q0 29 -2 65q-3 56 -19 56q-17 0 -68 -6q-39 0 -39 28q0 16 50 27q36 7 81 7q48 0 48 -68v-304q0 -26 -22 -26q-33 0 -33 44q-1 13 -16 1q-24 -19 -29 -21q-45 -18 -86 -19h-20q-113 0 -157 42q-53 50 -70 184q-15 161 -15 344q0 169 13 358z" />
<glyph unicode="h" horiz-adv-x="499" d="M96 137v47v69v78v46q-2 293 -2 495q0 303 5 400q2 26 21 28q20 3 21 -21q2 -46 2 -115q-7 -180 -7 -281q0 -121 10 -128q16 -12 109 -14h19q78 0 88 15q6 9 6 182q0 126 -3 339q0 24 18 24q21 0 21 -59v-5l-2 -62q-2 -58 -2 -129q0 -179 2 -551q7 -174 7 -452 q0 -19 -7 -30q-8 -13 -24 -13q-25 0 -25 37q13 423 13 578q0 77 -3 87q-4 12 -54 12q-11 0 -23 -1q-132 0 -141 -20q-1 -3 -1 -21q0 -32 4 -110v-215q-3 -42 -3 -322q0 -25 -17 -25q-22 0 -29 20q1 -3 -3 117z" />
<glyph unicode="i" horiz-adv-x="240" d="M91 1262q-1 38 21 39q14 1 21.5 -9t6.5 -25q0 -6 -5 -179q0 -344 5 -414q5 -61 5 -530q0 -34 2 -68q3 -30 3 -53.5t-14 -23.5q-15 -4 -29 0q-14 7 -13.5 20.5t1.5 41.5q0 16 1 37q2 91 2 119q0 20 2 69q1 29 1 50v19q0 -3 1 115v39q0 77 -3 142q-3 81 -5 182 q-2 121 -2 125l2 179q-2 117 -3 125z" />
<glyph unicode="j" horiz-adv-x="389" d="M52 33q1 13 30 23q43 14 71 39q66 59 66 201q0 26 -1 100q-1 75 -1 126q0 208 -5 285q-29 431 -48 441q-8 5 -38 5q-20 0 -49 -2q-10 0 -16 7q-6 9 -6 19q0 24 230 24q12 0 19 -7q15 -15 5 -34q-6 -11 -47 -9q-44 2 -47 -3q-2 -2 -2 -17q0 -17 3 -52q1 -9 15 -210 q1 -20 11 -110q9 -91 14 -179q5 -59 11 -323q1 -27 1 -50q0 -101 -11 -134q-17 -56 -57 -99q-70 -74 -112 -74q-38 0 -36 33z" />
<glyph unicode="k" horiz-adv-x="505" d="M90 83q0 20 3 95q3 80 4 154q0 58 4 164q4 98 4 115q-1 20 -8 333q-7 309 -7 321q0 25 26 33q28 9 33 -8q2 -3 2 -24q0 -44 -9 -167q-9 -152 -9 -234q0 -98 13 -98h1q14 1 105 186q24 49 57 116q33 69 44 91q69 138 90 139q26 0 26 -27q-2 -12 -24 -50q-28 -48 -33 -58 q-7 -15 -34 -63q-28 -47 -33 -59q-152 -288 -152 -312q0 -28 112 -327q38 -101 105 -234q57 -113 59 -128q6 -36 -20 -41q-15 -3 -34 35q-69 136 -135 318q-123 336 -130 336q-6 0 -6 -170q-1 -260 -7 -328q0 -29 -1 -121q-2 -70 -21 -70q-25 0 -25 83z" />
<glyph unicode="l" horiz-adv-x="406" d="M98 114q5 70 8 778v29q0 51 -2 145q-2 117 -2 130q2 90 5 94q8 13 24 11q16 -3 16 -25q0 -7 -1 -59q-1 -55 -1 -76q0 -15 6 -171q7 -178 9 -264q1 -30 1 -62q0 -138 -11 -316v-255q-2 -28 112 -28t114 -16q-1 -23 -44 -25q-12 -1 -35 -1q-11 1 -26 0q-17 -2 -50 -2.5 t-82 2.5q-42 2 -42 83q0 13 1 28z" />
<glyph unicode="m" horiz-adv-x="684" d="M90 708l5 429q-1 89 -1 124v22q2 18 22 18q18 0 24 -12q2 -2 28 -81q30 -87 46 -128q68 -174 88 -232q30 -86 43 -86q3 0 5 4q38 69 65 144q61 169 68 190q8 28 29 104q17 65 23 79q8 19 29 18q20 -1 26 -15q2 -4 2 -19q0 -23 -4 -72q-7 -103 -7 -132q0 -36 3 -142 q2 -136 3 -218q4 -280 4 -307q0 -150 -1 -156v-118q0 -102 -7 -112q-9 -12 -24 -10q-21 4 -21 18v36.5v88.5l4 566q2 118 2 177q0 40 -1 54q-3 131 -9 131h-1q-17 -10 -81 -178q-61 -158 -56 -149q-37 -81 -56 -81q-24 0 -105 225q-69 189 -86 189q-3 0 -4 -5 q-10 -34 -10 -335l6 -542l8 -150q0 -44 -27 -44q-30 0 -30 103l4 259z" />
<glyph unicode="n" horiz-adv-x="590" d="M90 83l3 606v222q2 279 2 317q0 72 28 73h1l49 -93q2 -6 49 -203q48 -200 56 -229q5 -24 29 -106q25 -89 41 -144q16 -60 37 -143q22 -85 23 -92q36 -133 44 -133q1 0 1 1q3 6 3 110l-8 546l-5 262q-1 163 -1 186q1 35 23 35q28 0 28 -60q0 -50 -2 -655q0 -35 4 -182 q0 -10 0.5 -28.5t-0.5 -43.5q-1 -57 -1 -75q4 -71 4 -105q0 -17 -1 -25q-4 -72 -7 -83q-9 -41 -33 -41q-18 0 -48 105q-166 594 -177 657q-63 306 -65 316q-8 35 -18 63q-13 34 -15 11v-12q0 -22 2 -68q5 -72 5 -93v-465q0 -140 2 -259q3 -130 3 -189q0 -49 -2 -49 q-9 -14 -26 -16q-16 -1 -22 9q-6 12 -6 73z" />
<glyph unicode="o" horiz-adv-x="553" d="M72 702q6 226 10 267q11 124 32 191q21 74 54 107q34 34 90 34h6q53 -1 86 -32q40 -36 63 -116q43 -147 48 -195q18 -161 18 -336q0 -40 -1 -80q-15 -185 -20 -221q-18 -118 -48 -192q-24 -60 -50 -85q-42 -44 -92 -44h-4q-63 3 -106 68q-23 35 -50 150q-13 60 -28 262 q-8 132 -8 198v24zM123 795q-3 -100 -2 -173q0 -86 3 -135q11 -147 27 -224q26 -129 32 -145q26 -70 81 -72h2q63 0 105 110q39 103 47 214q11 192 11 259q0 26 1 72q0 65 -5 184q-6 100 -22 163q-29 110 -42 133q-41 76 -97 77h-2q-127 0 -139 -463z" />
<glyph unicode="p" horiz-adv-x="445" d="M92 59l7 307l-1 351q0 143 -2 227q-1 32 -1 66v34q1 55 1 60q-2 40 -2 62q-2 24 -2 48q0 30 3 60q2 27 48 27q56 0 104 -29q41 -23 76 -73q45 -79 48 -150q1 -11 1 -22q0 -70 -22 -142q-33 -108 -120 -147q-78 -37 -87 -52q-3 0 -3 -75q0 -127 8 -471q-1 -120 -4 -126 q-12 -19 -32 -13q-20 5 -20 58zM128 995q1 -237 8 -243q6 -3 14 -3q31 0 94 49q79 66 88 179q1 17 1 33q0 78 -31 149q-29 68 -99 93q-19 7 -34 7q-22 0 -33 -15q-8 -10 -8 -249z" />
<glyph unicode="q" horiz-adv-x="557" d="M72 694v-24q0 -68 8 -201q15 -204 29 -265q27 -115 50 -151q43 -66 107 -69q42 3 41 -8q2 -7 3 -34q2 -41 12 -79q5 -23 17 -38q16 -18 30.5 -6.5t2.5 32.5q-10 18 -16 50q-5 28 -6 48q-5 56 -2 59q3 8 15 20q26 26 51 87q30 75 47 194q6 37 21 223q1 41 1 81 q0 177 -18 339q-5 49 -48 198q-23 79 -65 117q-33 30 -86 32h-3q-58 0 -94 -36q-33 -33 -55 -106q-21 -68 -32 -194q-4 -41 -10 -269zM123 787q12 469 141 469h2q56 -2 98 -79q12 -23 42 -134q17 -64 22 -164q5 -103 5 -166v-20v-73q-1 -68 -12 -262q-6 -95 -48 -204 q-43 -111 -107 -111h-2q-58 2 -80 61q-6 16 -32 146q-16 77 -28 226q-3 50 -3 138q0 73 2 173z" />
<glyph unicode="r" horiz-adv-x="443" d="M94 1166q0 -22 2 -62q0 -5 -1 -60v-34q0 -34 1 -66q5 -147 5 -221l6 -358l-12 -306q0 -53 20 -58q20 -6 31 13q4 6 5 126q-11 366 -11 486q0 64 3 58q3 0 42 -151q35 -118 44 -157q19 -86 44 -164q10 -30 29 -100q17 -61 20 -71q17 -41 30 -41q28 0 28 27q0 12 -5 29 q-108 338 -111 353q-78 283 -78 296q0 19 46 38q84 44 118 142q22 72 21 142v22q-3 71 -48 150q-35 50 -76 73q-48 29 -104 29q-46 0 -47 -27q-4 -32 -4 -65q0 -21 2 -43zM142 998v85q0 153 6 161q11 15 31 15q14 0 32 -7q66 -25 93 -93q29 -70 29 -147q0 -17 -1 -35 q-7 -109 -79 -175q-59 -48 -89 -48q-8 0 -14 4q-7 5 -8 240z" />
<glyph unicode="s" horiz-adv-x="415" d="M50 42q0 22 26 22q13 -1 44 -17q16 -4 31 -4q40 0 72 31q39 39 50 68q36 103 36 181q0 60 -28 155q-24 83 -59 152q-37 70 -69 137q-84 162 -84 307q0 120 67 186q39 41 87 41q13 0 26 -3q58 -11 74 -42q9 -18 -7 -27q-7 -4 -29 11q-27 17 -40 21q-6 1 -13 1 q-36 0 -75 -42q-34 -34 -34 -132q0 -148 77 -300q68 -132 74 -143q29 -63 64 -185q25 -98 25 -152q0 -96 -49 -201q-46 -100 -139 -106q-29 -2 -60 1q-67 7 -67 40z" />
<glyph unicode="t" horiz-adv-x="443" d="M62 1292q3 12 80 12q32 0 77 -2q79 2 119 2h23q32 0 32 -16q0 -24 -19 -26h-27h-49q-32 0 -40 -5q-18 -13 -18 -168q0 -344 4 -414q6 -81 6 -260q0 -107 -2 -250q0 -23 3 -61q4 -47 4 -49q2 -43 -10 -51q-7 -7 -33 -2q-12 2 -10 39q2 66 2 57q2 91 2 119q0 20 2 69 q1 29 1 51v19q0 9 1 115v49q0 72 -2 133q-4 80 -5 182q-2 120 -2 124l2 179q0 111 -6 118q-2 7 -40 7q-29 0 -80 -4q-27 -2 -15 33z" />
<glyph unicode="u" horiz-adv-x="583" d="M90 426v404q0 111 2 238q1 37 1 81q1 36 1 40q0 11 -2 41q-2 32 -2 42q0 33 25 30q28 -2 30 -33v1v-94q-8 -361 -8 -502q0 -51 1 -74q12 -255 12 -258q12 -109 23 -149q19 -68 50 -98q44 -43 84 -43h5q54 3 77 35q42 57 54 174q2 24 2 72t-2 121l-1 105q-3 134 -3 209v34 q1 46 1 204q-8 241 -9 260q-2 38 28 38q22 0 28 -27q4 -16 4 -87q0 -28 -1 -65q-1 -60 -4 -278q1 -320 1 -336l1 -226v-21q0 -178 -83 -237q-39 -27 -105 -27q-62 0 -112 55q-43 49 -70 134q-23 81 -28 237z" />
<glyph unicode="v" horiz-adv-x="485" d="M31 1272q-1 14 11 22t23 3q25 -9 37 -53q4 -14 16 -114q2 -24 10 -118q10 -118 30 -261q75 -519 93 -552q2 -4 4 -4q10 0 21 103q0 2 19 123q22 130 35 249q27 222 45 426q7 103 15 171q5 38 32 33q24 -3 29 -23q1 -4 1 -10q0 -24 -12 -89q-39 -224 -78 -592 q-38 -366 -77 -553q-7 -33 -34 -33q-18 0 -27 20q0 -2 -72 484q-19 123 -48 326q-22 164 -33 225q-11 67 -26 146q-13 66 -14 71z" />
<glyph unicode="w" horiz-adv-x="684" d="M93 908v155v119q0 102 8 112q8 12 23 10t21 -18q1 -6 1 -60v-66l-5 -566q-1 -98 -1 -156t1 -76q1 -133 8 -133q21 0 89 252q10 39 31 110q20 69 26 88q22 83 44 83q25 0 84 -223q25 -89 63 -200q39 -114 50 -114q2 0 3 4q10 35 10 337l-6 542l-8 151q0 44 27 44 q30 0 30 -104l-4 -258l6 -346l-5 -430q3 -93 3 -127q0 -17 -1 -20q-2 -18 -22 -18t-25 12q-22 47 -69 206q-10 37 -40 132q-27 84 -35 115q-51 183 -65 183q-2 0 -3 -3q-24 -55 -59 -210q-27 -125 -65 -246q-29 -93 -60 -171q-7 -19 -29 -18q-21 1 -25 15q-2 4 -2 19 q0 23 4 72q6 103 6 132q0 37 -2 143q-3 136 -3 218q-4 281 -4 309z" />
<glyph unicode="x" horiz-adv-x="416" d="M52 23q5 41 23 104q5 18 15 86q13 83 23 132q12 58 21 129q11 82 12 88q27 153 27 169q0 4 -47 236q-11 52 -53 222q-18 76 -18 89q0 35 36 22q24 -11 66 -286q32 -199 50 -234l1 -1q13 0 49 216q37 244 44 266q11 43 33 43q14 0 21 -23q5 -21 0 -35q-21 -50 -57 -240 q-53 -269 -53 -285q0 -77 111 -622q10 -44 10 -71t-20 -27q-30 0 -30 22q0 -12 -42 283q-52 369 -67 369q-1 0 -2 -3q-3 -18 -58 -334q-14 -82 -24 -166q-6 -57 -9 -80q-13 -72 -20 -82q-8 -11 -26 -10q-18 2 -16 23z" />
<glyph unicode="y" horiz-adv-x="413" d="M54 1277q6 31 36 21q22 -7 67 -287q38 -230 45 -244q1 -2 2 -2q11 0 52 228q47 273 46 265q10 43 32 43q21 0 21 -36q0 -13 -3 -32q-2 -15 -27 -120q-26 -112 -34 -157q-9 -43 -37 -151q-26 -101 -29 -123q-5 -33 -5 -161q0 -64 1 -151q1 -38 4 -192q4 -147 4 -151 q0 -27 -19 -27q-32 0 -32 32v-4l-1 93t-1 166q2 83 2 176t-2 198q-1 66 -50 303q1 -6 -52 205q-21 80 -21 102q0 4 1 6z" />
<glyph unicode="z" horiz-adv-x="419" d="M50 26q0 16 42 165q9 33 83 369q79 366 94 464q46 201 46 228q0 4 -1 4q-7 10 -58 10q-39 0 -105 -6q-73 0 -75 13q-2 24 9 27h45l182 4q50 0 50 -29q0 -11 -13 -65q-12 -50 -17 -78q-4 -22 -34 -179q-33 -173 -56 -300q-55 -299 -119 -499q-16 -50 -16 -77q0 -20 9 -28 q8 -6 53 -6q32 0 83 3q104 0 109 -13q8 -23 -23 -30q-12 -3 -106 -3q-56 0 -142 1q-40 0 -40 25z" />
<glyph unicode="{" horiz-adv-x="306" d="M50 729q0 10 28 29q46 32 46 119q-32 273 -26 342q10 121 32 159q32 56 85 56q20 0 45 -10q26 -10 26 -21q-1 -23 -30 -20l-37 4q-77 8 -66 -186q-2 -78 14 -224q19 -136 -12 -201q-4 -8 -23 -25q-17 -15 -18 -25q3 -8 21 -23q19 -17 23 -25q14 -18 14 -64l-9 -186 q-13 -132 -17 -222q-3 -67 25 -115q27 -46 61 -46q40 -1 47 -9q7 -7 7 -16q0 -20 -62 -20t-94 56q-32 55 -32 159q8 118 12 186q2 28 11 107q8 66 8 96q0 71 -49 96q-30 16 -30 29z" />
<glyph unicode="|" horiz-adv-x="231" d="M90 2v198q1 1006 2 1074q2 269 2 268q6 39 29 21q13 -9 14 -94q2 -96 -6 -274q0 -15 -2 -599q0 -6 8 -443q4 -235 1 -255q-8 -48 -24 -45q-18 5 -23 45v55z" />
<glyph unicode="}" horiz-adv-x="306" d="M20 20q0 9 7 16q7 8 47 9q34 0 61 46q28 48 25 115q-4 90 -17 222l-9 186q0 46 14 64q4 8 23 25q18 15 21 23q-1 10 -18 25q-19 17 -23 25q-31 65 -12 201q16 146 14 224q11 194 -66 186l-37 -4q-29 -3 -30 20q0 11 26 21q25 10 45 10q53 0 85 -56q22 -38 32 -159 q6 -69 -26 -342q0 -87 46 -119q28 -19 28 -29q0 -13 -30 -29q-49 -25 -49 -96q0 -30 8 -96q9 -79 11 -107q4 -68 12 -186q0 -104 -32 -159q-32 -56 -94 -56t-62 20z" />
<glyph unicode="~" horiz-adv-x="549" d="M31 623q1 53 34 96q37 47 103 44q42 -2 89 -49q10 -10 27 -32q16 -21 26 -31q51 -50 109 -41q46 7 45 85q0 12 -18 32q-13 17 -3 37q7 15 30 11q26 -5 37 -35q9 -26 1 -74q-8 -49 -26 -66q-38 -38 -84 -38q-45 0 -87 25q-34 19 -68 55q-33 37 -52 54q-37 27 -65 16 q-42 -17 -44 -57q-1 -14 5 -33q9 -22 9 -27q2 -31 -26 -35q-18 -2 -31 22q-12 21 -11 41z" />
<glyph unicode="&#xa1;" horiz-adv-x="303" d="M93 1409q-3 56 64 58q56 1 56 -57q0 -22 -14 -42q-13 -18 -43 -18q-32 0 -41 9q-20 21 -22 50zM115 53q16 217 18 293t8 331q-12 418 -11 454q4 99 54 54q-1 2 -1 -162l-2 -84q0 -38 2 -193q3 -152 3 -265q0 -126 9 -264q9 -140 9 -175q0 -42 -33 -42q-24 0 -40 12 q-16 13 -16 41z" />
<glyph unicode="&#xa8;" horiz-adv-x="349" d="M30 1431q0 34 45 37q10 0 27 -20q19 -22 6 -43q-16 -25 -37 -23q-22 2 -30 11q-11 13 -11 38zM241 1444q17 26 37 23q22 -2 30 -11q11 -13 11 -38q0 -33 -44 -36q-10 -1 -28 20q-19 22 -6 42z" />
<glyph unicode="&#xa9;" horiz-adv-x="912" d="M90 757q0 359 85 521q87 164 243 153q153 -10 241 -100q86 -89 117 -216q27 -108 32 -205q4 -72 7 -263q7 -368 -73 -484q-26 -38 -52 -39q-27 -1 20 65q83 118 68 491q-17 401 -98 545q-90 159 -266 159q-126 0 -188 -118q-51 -98 -71 -221q-23 -142 -27 -303 q-2 -112 25 -309q16 -118 46 -196q71 -188 199 -192q157 -6 290 121q48 44 39 39q30 17 23 -22q-7 -33 -67 -81q-57 -45 -113 -67q-103 -40 -172 -34q-200 15 -262 264q-46 184 -46 492zM228 817q0 194 63 307q23 40 79 63q67 28 139 6q80 -25 102 -78q17 -41 -1 -55 q-8 -6 -21 -1q-14 5 -14 15q5 82 -129 87q-93 4 -129 -73q-38 -81 -45 -139q-7 -62 -6 -214q0 33 14 -234q7 -134 55 -189q66 -74 167 -32q92 39 94 91q8 32 48 10q26 -29 -35 -90q-68 -67 -176 -67q-100 0 -152 79q-53 81 -53 514z" />
<glyph unicode="&#xab;" horiz-adv-x="800" d="M80 717q-10 -23 181 -225l66 -82l17 -20q16 -20 19 -23q18 -16 38 -13q31 5 13 51q-5 9 -107 129q-168 175 -162 179q-7 29 163 230q63 72 91 114q24 35 15 43q-27 21 -51 5l-86 -113q-201 -248 -197 -275zM378 717q-10 -23 181 -225l66 -82l17 -20q16 -20 19 -23 q18 -16 38 -13q31 5 13 51q-5 9 -107 129q-168 175 -162 179q-7 29 163 230q63 72 91 114q24 35 15 43q-27 21 -51 5l-86 -113q-201 -248 -197 -275z" />
<glyph unicode="&#xad;" d="M67 615q9 14 87 12q154 -4 221 -1q94 5 112 -13q38 -44 -98 -46q-13 0 -97 -4q-80 -4 -111 -4q-92 0 -109 20q-15 21 -5 36z" />
<glyph unicode="&#xae;" horiz-adv-x="912" d="M97 785q-7 368 73 484q1 2 2 3q17 26 57 58q57 45 113 67q103 40 172 34q200 -15 262 -264q46 -184 46 -492q0 -359 -85 -521q-87 -164 -243 -153q-153 10 -241 100q-86 89 -117 216q-27 108 -32 205q-4 72 -7 263zM134 752q17 -401 98 -545q90 -159 266 -159 q126 0 187 118q52 98 72 221q23 142 27 303q2 112 -25 309q-16 118 -46 196q-71 188 -199 192q-157 6 -290 -121q-10 -9 -17 -16q-2 -3 -5 -7q-83 -118 -68 -491zM298 1105q1 -16 2 -47q0 -4 -1 -45q-1 -39 1 -76q6 -111 6 -167l6 -271l-12 -231q0 -40 21 -44q23 -4 35 9 q5 5 5 95q-20 426 -8 413q2 8 47 -115q39 -90 48 -119q21 -64 49 -123q11 -23 32 -76q19 -47 23 -55q18 -30 32 -30q46 0 27 42q-120 254 -125 267q-89 219 -85 224q10 17 50 29q97 30 132 108q28 63 23 123q-4 55 -53 115q-40 37 -84 55q-54 21 -116 21q-50 0 -53 -20 q-6 -41 -2 -82zM338 978q-1 178 7 186q21 19 74 6q78 -19 110 -69q42 -66 34 -138q-9 -83 -96 -131q-86 -48 -118 -35q-9 3 -11 181z" />
<glyph unicode="&#xb0;" horiz-adv-x="327" d="M68 1314q-38 -56 17 -119q51 -56 81 -55q131 8 131 101q0 70 -34 107q-21 24 -86 31q-60 6 -109 -65zM109 1294q30 45 69 42q41 -4 55 -20q21 -23 21 -68q0 -60 -84 -65q-18 -1 -50 36q-36 39 -11 75z" />
<glyph unicode="&#xb1;" horiz-adv-x="709" d="M41 762q-11 -18 5 -42q17 -24 111 -24q149 6 151 -2q7 2 2 -180q2 -42 13 -76q15 -48 40 -26q5 5 5 151q-10 122 2 135q11 4 192 2q117 2 82 46q-17 23 -114 17q-39 -2 -115 -3q-30 0 -39 10q-4 13 5 201q-1 66 -15 74q-19 12 -34 -1q-31 -23 -23 -143q7 -129 -8 -131 l-172 5q-79 3 -88 -13zM134 279q9 16 87 14q154 -5 221 -1q94 6 112 -16q38 -51 -98 -54q-13 0 -97 -4q-80 -5 -111 -5q-92 0 -109 24q-15 24 -5 42z" />
<glyph unicode="&#xb4;" horiz-adv-x="240" d="M51 1204q-21 14 53 143q7 13 19 41q13 29 19 41q24 44 50 32q18 -8 18 -30q0 -18 -29 -63q-54 -85 -68 -103q-51 -69 -62 -61z" />
<glyph unicode="&#xbb;" horiz-adv-x="800" d="M88 405q-18 -46 13 -51q20 -3 38 13q3 3 19 23l17 20l66 82q191 202 181 225q4 27 -197 275l-86 113q-24 16 -51 -5q-9 -8 15 -43q28 -42 91 -114q170 -201 163 -230q6 -4 -162 -179q-102 -120 -107 -129zM386 405q-18 -46 13 -51q20 -3 38 13q3 3 19 23l17 20l66 82 q191 202 181 225q4 27 -197 275l-86 113q-24 16 -51 -5q-9 -8 15 -43q28 -42 91 -114q170 -201 163 -230q6 -4 -162 -179q-102 -120 -107 -129z" />
<glyph unicode="&#xbf;" horiz-adv-x="501" d="M73 158q-3 49 32 42q8 -1 31 -45q26 -49 55 -67q99 -64 149 -1q65 66 56 204q-4 70 -100 260q-44 87 -50 196q-6 86 -7 203v166q0 56 28 42q27 -14 27 -57v-60q-1 -59 -1 -106q0 -91 5 -176q4 -80 69 -217q84 -176 84 -266q0 -169 -69 -238q-40 -45 -116 -37 q-60 6 -97 32q-91 63 -96 125zM204 1387q-3 55 62 57q55 1 55 -55q0 -22 -14 -42q-12 -17 -42 -17t-39 9q-20 21 -22 48z" />
<glyph unicode="&#xc0;" horiz-adv-x="546" d="M40 25q-10 11 32 257q7 44 31 236q23 187 39 278q6 38 53 345q10 73 18 107q9 35 21 78q30 108 54 108q29 0 50 -60q38 -111 50 -189q47 -258 49 -281q4 -36 10 -96q12 -112 20 -186q30 -288 49 -556v-20q0 -19 -6 -27q-10 -16 -28 -18q-40 -4 -37 18q26 168 -15 337 q-10 21 -100 32q-101 11 -168 -15q-24 -17 -33 -68q-27 -126 -30 -199q3 -103 -11 -106q-28 -4 -48 25zM144 1705q-8 -34 47 -65q43 -25 113 -72t76 -48q28 -7 32 10q3 10 -27 38q-15 13 -30 25q-160 130 -178 135q-25 6 -33 -23zM149 521q-16 -84 9 -86q261 -9 263 20 q3 194 -42 528q-48 352 -87 341q-10 -3 -38 -173q-4 -19 -24 -120q-22 -104 -34 -172q-13 -73 -29 -199q-14 -119 -18 -139z" />
<glyph unicode="&#xc1;" horiz-adv-x="546" d="M40 25q-10 11 32 257q7 44 31 236q23 187 39 278q6 38 53 345q10 73 18 107q9 35 21 78q30 108 54 108q29 0 50 -60q38 -111 50 -189q47 -258 49 -281q4 -36 10 -96q12 -112 20 -186q30 -288 49 -556v-20q0 -19 -6 -27q-10 -16 -28 -18q-40 -4 -37 18q26 168 -15 337 q-10 21 -100 32q-101 11 -168 -15q-24 -17 -33 -68q-27 -126 -30 -199q3 -103 -11 -106q-28 -4 -48 25zM143 1530q5 -17 32 -10q7 1 77 48t113 72q55 31 46 65q-7 29 -33 23q-18 -5 -178 -135q-15 -12 -30 -25q-29 -28 -27 -38zM149 521q-16 -84 9 -86q261 -9 263 20 q3 194 -42 528q-48 352 -87 341q-10 -3 -38 -173q-4 -19 -24 -120q-22 -104 -34 -172q-13 -73 -29 -199q-14 -119 -18 -139z" />
<glyph unicode="&#xc2;" horiz-adv-x="546" d="M40 25q-10 11 32 257q7 44 31 236q23 187 39 278q6 38 53 345q10 73 18 107q9 35 21 78q30 108 54 108q29 0 50 -60q38 -111 50 -189q47 -258 49 -281q4 -36 10 -96q12 -112 20 -186q30 -288 49 -556v-20q0 -19 -6 -27q-10 -16 -28 -18q-40 -4 -37 18q26 168 -15 337 q-10 21 -100 32q-101 11 -168 -15q-24 -17 -33 -68q-27 -126 -30 -199q3 -103 -11 -106q-28 -4 -48 25zM149 521q-16 -84 9 -86q261 -9 263 20q3 194 -42 528q-48 352 -87 341q-10 -3 -38 -173q-4 -19 -24 -120q-22 -104 -34 -172q-13 -73 -29 -199q-14 -119 -18 -139z M149 1525q10 -13 29 1q7 5 49 68q67 127 75 117q4 -1 17 -34q43 -105 41 -101q27 -59 50 -57q21 3 18 28q-2 22 -81 177l-18 34q-3 8 -9 16q-9 15 -20 16h-1q-6 0 -12 -4q-14 -11 -109 -184q-12 -22 -17 -32q-17 -38 -12 -45z" />
<glyph unicode="&#xc3;" horiz-adv-x="546" d="M40 25q-10 11 32 257q7 44 31 236q23 187 39 278q6 38 53 345q10 73 18 107q9 35 21 78q30 108 54 108q29 0 50 -60q38 -111 50 -189q47 -258 49 -281q4 -36 10 -96q12 -112 20 -186q30 -288 49 -556v-20q0 -19 -6 -27q-10 -16 -28 -18q-40 -4 -37 18q26 168 -15 337 q-10 21 -100 32q-101 11 -168 -15q-24 -17 -33 -68q-27 -126 -30 -199q3 -103 -11 -106q-28 -4 -48 25zM84 1569q1 42 28 76q29 38 82 36q34 -2 71 -39q8 -9 22 -26q13 -17 21 -25q40 -40 87 -33q36 5 36 68q0 9 -14 26q-11 14 -3 29q6 12 24 9q21 -4 29 -27 q25 -69 -19 -113q-31 -30 -67 -30q-37 0 -71 19q-26 16 -54 44q-45 47 -41 44q-30 21 -52 13q-34 -13 -36 -46q-1 -11 5 -27q6 -17 6 -21q2 -25 -20 -28q-36 -4 -34 51zM149 521q-16 -84 9 -86q261 -9 263 20q3 194 -42 528q-48 352 -87 341q-10 -3 -38 -173 q-4 -19 -24 -120q-22 -104 -34 -172q-13 -73 -29 -199q-14 -119 -18 -139z" />
<glyph unicode="&#xc4;" horiz-adv-x="546" d="M40 25q-10 11 32 257q7 44 31 236q23 187 39 278q6 38 53 345q10 73 18 107q9 35 21 78q30 108 54 108q29 0 50 -60q38 -111 50 -189q47 -258 49 -281q4 -36 10 -96q12 -112 20 -186q30 -288 49 -556v-20q0 -19 -6 -27q-10 -16 -28 -18q-40 -4 -37 18q26 168 -15 337 q-10 21 -100 32q-101 11 -168 -15q-24 -17 -33 -68q-27 -126 -30 -199q3 -103 -11 -106q-28 -4 -48 25zM139 1569q0 34 45 37q10 0 27 -20q19 -22 6 -43q-16 -25 -37 -23q-22 2 -30 11q-11 13 -11 38zM149 521q-16 -84 9 -86q261 -9 263 20q3 194 -42 528q-48 352 -87 341 q-10 -3 -38 -173q-4 -19 -24 -120q-22 -104 -34 -172q-13 -73 -29 -199q-14 -119 -18 -139zM350 1582q17 26 37 23q22 -2 30 -11q11 -13 11 -38q0 -33 -44 -36q-10 -1 -28 20q-19 22 -6 42z" />
<glyph unicode="&#xc5;" horiz-adv-x="544" d="M38 25q-8 14 32 257q7 44 31 237q23 187 39 278q7 38 53 345q12 83 18 107q9 35 21 78q31 108 55 108q28 0 49 -60q38 -110 51 -188q49 -296 47 -272q1 -21 11 -107q13 -111 20 -185q31 -288 49 -557v-20q0 -18 -5 -27q-10 -16 -29 -18q-40 -4 -36 18q26 169 -16 338 q0 14 -100 32q-101 18 -168 -15q-20 -10 -33 -68q-27 -127 -30 -200q-5 -104 -11 -104q-34 0 -48 23zM147 522q-16 -84 9 -87q263 -6 264 20q2 195 -43 529q-47 353 -86 341q-10 -3 -39 -173q-3 -19 -24 -119q-21 -105 -33 -173q-13 -74 -30 -199q-20 -157 -18 -139z M196 1676q-32 -49 14 -104q42 -49 67 -48q109 7 109 88q0 62 -28 94q-18 21 -72 27q-50 5 -90 -57zM229 1658q25 40 58 37q34 -4 45 -17q18 -21 18 -60q0 -52 -70 -57q-15 -1 -42 32q-30 34 -9 65z" />
<glyph unicode="&#xc8;" horiz-adv-x="478" d="M99 1309q-9 121 45 123q107 5 146 0q6 -1 32 -1q27 0 42 -1q51 -4 42 -27q-7 -17 -136 -13q-122 3 -120 -26l-4 -290q10 -232 16 -247q1 -10 123 1q17 0 31 -29q14 -28 -7 -27q-80 4 -99 1q-50 -8 -50 -29q-15 -525 -14 -568q1 -108 18 -123q14 -11 130 -6q134 7 130 -31 q3 -21 -220 -15q-94 -2 -98 6q-5 6 -4 112q-1 23 0 148q2 141 2 188q-2 684 -5 854zM112 1705q-8 -34 47 -65q43 -25 113 -72t76 -48q28 -7 32 10q3 10 -27 38q-15 13 -30 25q-160 130 -178 135q-25 6 -33 -23z" />
<glyph unicode="&#xc9;" horiz-adv-x="478" d="M99 1309q-9 121 45 123q107 5 146 0q6 -1 32 -1q27 0 42 -1q51 -4 42 -27q-7 -17 -136 -13q-122 3 -120 -26l-4 -290q10 -232 16 -247q1 -10 123 1q17 0 31 -29q14 -28 -7 -27q-80 4 -99 1q-50 -8 -50 -29q-15 -525 -14 -568q1 -108 18 -123q14 -11 130 -6q134 7 130 -31 q3 -21 -220 -15q-94 -2 -98 6q-5 6 -4 112q-1 23 0 148q2 141 2 188q-2 684 -5 854zM111 1530q5 -17 32 -10q7 1 77 48t113 72q55 31 46 65q-7 29 -33 23q-18 -5 -178 -135q-15 -12 -30 -25q-29 -28 -27 -38z" />
<glyph unicode="&#xca;" horiz-adv-x="478" d="M99 1309q-9 121 45 123q107 5 146 0q6 -1 32 -1q27 0 42 -1q51 -4 42 -27q-7 -17 -136 -13q-122 3 -120 -26l-4 -290q10 -232 16 -247q1 -10 123 1q17 0 31 -29q14 -28 -7 -27q-80 4 -99 1q-50 -8 -50 -29q-15 -525 -14 -568q1 -108 18 -123q14 -11 130 -6q134 7 130 -31 q3 -21 -220 -15q-94 -2 -98 6q-5 6 -4 112q-1 23 0 148q2 141 2 188q-2 684 -5 854zM111 1523q10 -14 28 0q8 6 50 68q76 116 75 117q4 -4 16 -33q44 -106 42 -102q26 -59 49 -56q21 2 19 28q-2 21 -82 177q-9 16 -18 33q5 -9 -9 16q-8 15 -20 16q-7 0 -13 -4 q-13 -11 -108 -184q-18 -33 -18 -32q-17 -37 -11 -44z" />
<glyph unicode="&#xcb;" horiz-adv-x="478" d="M99 1309q-9 121 45 123q107 5 146 0q6 -1 32 -1q27 0 42 -1q51 -4 42 -27q-7 -17 -136 -13q-122 3 -120 -26l-4 -290q10 -232 16 -247q1 -10 123 1q17 0 31 -29q14 -28 -7 -27q-80 4 -99 1q-50 -8 -50 -29q-15 -525 -14 -568q1 -108 18 -123q14 -11 130 -6q134 7 130 -31 q3 -21 -220 -15q-94 -2 -98 6q-5 6 -4 112q-1 23 0 148q2 141 2 188q-2 684 -5 854zM115 1569q0 34 45 37q10 0 27 -20q19 -22 6 -43q-16 -25 -37 -23q-22 2 -30 11q-11 13 -11 38zM326 1582q17 26 37 23q22 -2 30 -11q11 -13 11 -38q0 -33 -44 -36q-10 -1 -28 20 q-19 22 -6 42z" />
<glyph unicode="&#xcc;" horiz-adv-x="339" d="M38 1705q-8 -34 47 -65q43 -25 113 -72t76 -48q28 -7 32 10q3 10 -27 38q-15 13 -30 25q-160 130 -178 135q-25 6 -33 -23zM130 1391q-1 42 23 43q16 1 24 -10t7 -27q0 -7 -6 -197q0 -380 6 -457q6 -67 6 -584q0 -38 2 -75q3 -33 3 -59t-15 -26q-17 -4 -32 0 q-16 8 -15.5 23l1.5 45q0 18 2 41q2 100 2 131q0 22 2 76q2 49 1 77q-1 13 1 127q1 110 -3 199q-3 89 -6 200q-2 133 -2 137l2 199q-2 128 -3 137z" />
<glyph unicode="&#xcd;" horiz-adv-x="339" d="M32 1530q5 -17 32 -10q7 1 77 48t113 72q55 31 46 65q-7 29 -33 23q-18 -5 -178 -135q-15 -12 -30 -25q-29 -28 -27 -38zM146 1391q-1 42 23 43q16 1 24 -10t7 -27q0 -7 -6 -197q0 -380 6 -457q6 -67 6 -584q0 -38 2 -75q3 -33 3 -59t-15 -26q-17 -4 -32 0 q-16 8 -15.5 23l1.5 45q0 18 2 41q2 100 2 131q0 22 2 76q2 49 1 77q0 -3 1 127q1 110 -3 199q-3 89 -6 200q-2 133 -2 137l2 199q-2 128 -3 137z" />
<glyph unicode="&#xce;" horiz-adv-x="347" d="M35 1525q10 -13 29 1q7 5 49 68q72 120 75 117q4 -4 17 -34q43 -105 41 -101q27 -59 50 -57q21 3 18 28q-2 22 -81 177l-18 34q-3 8 -9 16q-9 15 -20 16h-1q-6 0 -12 -4q-14 -11 -109 -184q-13 -23 -17 -32q-17 -38 -12 -45zM147 1391q-1 42 23 43q16 1 24 -10t7 -27 q0 -7 -6 -197q0 -380 6 -457q6 -67 6 -584q0 -38 2 -75q3 -33 3 -59t-15 -26q-17 -4 -32 0q-16 8 -15.5 23l1.5 45q0 18 2 41q2 100 2 131q0 22 2 76q2 49 1 77q0 -3 1 127q1 110 -3 199q-3 89 -6 200q-2 133 -2 137l2 199q-2 128 -3 137z" />
<glyph unicode="&#xcf;" horiz-adv-x="349" d="M30 1569q0 34 45 37q10 0 27 -20q19 -22 6 -43q-16 -25 -37 -23q-22 2 -30 11q-11 13 -11 38zM151 1391q-1 42 23 43q16 1 24 -10t7 -27q0 -7 -6 -197q0 -380 6 -457q6 -67 6 -584q0 -38 2 -75q3 -33 3 -59t-15 -26q-17 -4 -32 0q-16 8 -15.5 23l1.5 45q0 18 2 41 q2 100 2 131q0 22 2 76q2 49 1 77q0 -3 1 127q1 110 -3 199q-3 89 -6 200q-2 133 -2 137l2 199q-2 128 -3 137zM241 1582q17 26 37 23q22 -2 30 -11q11 -13 11 -38q0 -33 -44 -36q-10 -1 -28 20q-19 22 -6 42z" />
<glyph unicode="&#xd1;" horiz-adv-x="632" d="M90 92l3 667v245q2 308 2 350q0 79 31 80q28 1 56 -102q2 -7 54 -224q52 -221 61 -253q6 -26 32 -116q28 -99 45 -159q18 -66 41 -158q24 -93 26 -101q44 -161 49 -146q3 7 3 121l-8 602l-6 289q-1 180 -1 205q1 39 25 39q31 0 31 -66q0 -56 -2 -722q0 -39 4 -201 q1 -23 0 -79q-1 -63 -1 -83q7 -117 4 -143q-5 -80 -8 -92q-10 -45 -36 -45q-20 0 -53 116q-183 655 -196 724q-69 337 -71 348q-9 39 -20 70q-14 37 -16 12q-2 -21 2 -88q5 -80 5 -103v-512q0 -155 2 -286q7 -263 2 -262q-10 -16 -29 -18q-18 -1 -24 10q-7 13 -7 81z M119 1569q1 42 28 76q29 38 82 36q34 -2 71 -39q8 -9 22 -26q13 -17 21 -25q40 -40 87 -33q36 5 36 68q0 9 -14 26q-11 14 -3 29q6 12 24 9q21 -4 29 -27q25 -69 -19 -113q-31 -30 -67 -30q-37 0 -71 19q-26 16 -54 44q-36 40 -41 44q-30 21 -52 13q-34 -13 -36 -46 q-1 -11 5 -27q6 -17 6 -21q2 -25 -20 -28q-36 -4 -34 51z" />
<glyph unicode="&#xd2;" horiz-adv-x="595" d="M72 774q7 249 11 294q12 137 35 211q24 81 60 117q40 40 106 38q58 -1 95 -35q44 -40 69 -128q47 -162 53 -215q24 -217 18 -459q-16 -203 -22 -243q-19 -130 -52 -212q-27 -66 -55 -94q-49 -50 -106 -48q-70 3 -117 75q-25 39 -55 165q-15 66 -31 289q-11 174 -9 245z M128 876q-6 -239 1 -339q13 -162 30 -247q29 -142 35 -160q29 -77 90 -79q70 -2 118 121q43 113 51 236q12 211 13 285q0 29 1 80q0 71 -6 203q-6 110 -24 179q-32 121 -46 147q-46 84 -107 85q-143 4 -156 -511zM162 1705q-8 -34 47 -65q43 -25 113 -72t76 -48q28 -7 32 10 q3 10 -27 38q-15 13 -30 25q-160 130 -178 135q-25 6 -33 -23z" />
<glyph unicode="&#xd3;" horiz-adv-x="595" d="M72 774q7 249 11 294q12 137 35 211q24 81 60 117q40 40 106 38q58 -1 95 -35q44 -40 69 -128q47 -162 53 -215q24 -217 18 -459q-16 -203 -22 -243q-19 -130 -52 -212q-27 -66 -55 -94q-49 -50 -106 -48q-70 3 -117 75q-25 39 -55 165q-15 66 -31 289q-11 174 -9 245z M128 876q-6 -239 1 -339q13 -162 30 -247q29 -142 35 -160q29 -77 90 -79q70 -2 118 121q43 113 51 236q12 211 13 285q0 29 1 80q0 71 -6 203q-6 110 -24 179q-32 121 -46 147q-46 84 -107 85q-143 4 -156 -511zM161 1530q5 -17 32 -10q7 1 77 48t113 72q55 31 46 65 q-7 29 -33 23q-18 -5 -178 -135q-15 -12 -30 -25q-29 -28 -27 -38z" />
<glyph unicode="&#xd4;" horiz-adv-x="595" d="M72 774q7 249 11 294q12 137 35 211q24 81 60 117q40 40 106 38q58 -1 95 -35q44 -40 69 -128q47 -162 53 -215q24 -217 18 -459q-16 -203 -22 -243q-19 -130 -52 -212q-27 -66 -55 -94q-49 -50 -106 -48q-70 3 -117 75q-25 39 -55 165q-15 66 -31 289q-11 174 -9 245z M128 876q-6 -239 1 -339q13 -162 30 -247q29 -142 35 -160q29 -77 90 -79q70 -2 118 121q43 113 51 236q12 211 13 285q0 29 1 80q0 71 -6 203q-6 110 -24 179q-32 121 -46 147q-46 84 -107 85q-143 4 -156 -511zM135 1525q10 -13 29 1q7 5 49 68q69 121 75 117q3 0 17 -34 q43 -105 41 -101q27 -59 50 -57q21 3 18 28q-2 22 -81 177q-9 17 -16 30q-3 7 -11 20q-9 15 -20 16h-1q-6 0 -12 -4q-14 -11 -109 -184q-12 -23 -17 -32q-17 -38 -12 -45z" />
<glyph unicode="&#xd5;" horiz-adv-x="595" d="M72 774q7 249 11 294q12 137 35 211q24 81 60 117q40 40 106 38q58 -1 95 -35q44 -40 69 -128q47 -162 53 -215q24 -217 18 -459q-16 -203 -22 -243q-19 -130 -52 -212q-27 -66 -55 -94q-49 -50 -106 -48q-70 3 -117 75q-25 39 -55 165q-15 66 -31 289q-11 174 -9 245z M101 1569q1 42 28 76q29 38 82 36q34 -2 71 -39q8 -9 22 -26q13 -17 21 -25q40 -40 87 -33q36 5 36 68q0 9 -14 26q-11 14 -3 29q6 12 24 9q21 -4 29 -27q25 -69 -19 -113q-31 -30 -67 -30q-37 0 -71 19q-26 16 -54 44q-36 40 -41 44q-30 21 -52 13q-34 -13 -36 -46 q-1 -11 5 -27q6 -17 6 -21q2 -25 -20 -28q-36 -4 -34 51zM128 876q-6 -239 1 -339q13 -162 30 -247q29 -142 35 -160q29 -77 90 -79q70 -2 118 121q43 113 51 236q12 211 13 285q0 29 1 80q0 71 -6 203q-6 110 -24 179q-32 121 -46 147q-46 84 -107 85q-143 4 -156 -511z " />
<glyph unicode="&#xd6;" horiz-adv-x="595" d="M72 774q7 249 11 294q12 137 35 211q24 81 60 117q40 40 106 38q58 -1 95 -35q44 -40 69 -128q47 -162 53 -215q24 -217 18 -459q-16 -203 -22 -243q-19 -130 -52 -212q-27 -66 -55 -94q-49 -50 -106 -48q-70 3 -117 75q-25 39 -55 165q-15 66 -31 289q-11 174 -9 245z M128 876q-6 -239 1 -339q13 -162 30 -247q29 -142 35 -160q29 -77 90 -79q70 -2 118 121q43 113 51 236q12 211 13 285q0 29 1 80q0 71 -6 203q-6 110 -24 179q-32 121 -46 147q-46 84 -107 85q-143 4 -156 -511zM151 1569q0 34 45 37q10 0 27 -20q19 -22 6 -43 q-16 -25 -37 -23q-22 2 -30 11q-11 13 -11 38zM362 1582q17 26 37 23q22 -2 30 -11q11 -13 11 -38q0 -33 -44 -36q-10 -1 -28 20q-19 22 -6 42z" />
<glyph unicode="&#xd7;" horiz-adv-x="549" d="M54 699q-24 -46 10 -47q7 -1 110 103q79 93 97 94q11 -6 138 -135q83 -82 90 -26q4 29 -69 93q-29 26 -83 79q-21 21 -21 35q7 13 146 139q47 47 43 62q-6 22 -26 24q-38 5 -117 -85q-87 -96 -98 -86l-118 125q-54 58 -72 53q-21 -5 -26 -33q-6 -30 62 -97 q109 -100 104 -108q7 -3 -125 -128q-29 -31 -45 -62z" />
<glyph unicode="&#xd9;" horiz-adv-x="623" d="M90 468v445q0 122 2 262q1 40 1 88q1 40 1 45q0 12 -2 45q-2 35 -2 46q0 36 28 33q30 -2 33 -36q-1 10 -1 -103q-12 -541 -7 -633q13 -281 13 -284q13 -120 25 -164q21 -75 55 -108q52 -50 98 -47q59 4 85 39q46 62 59 191q5 52 0 212l-1 116q-4 184 -3 267q1 51 1 224 q-9 265 -10 286q-2 42 31 42q24 0 31 -30q5 -24 3 -167q-1 -66 -4 -306q1 -352 1 -369l1 -249q5 -214 -92 -283q-42 -30 -115 -30q-68 0 -123 61q-48 53 -77 147q-26 89 -31 260zM166 1705q-8 -34 47 -65q43 -25 113 -72t76 -48q28 -7 32 10q3 10 -27 38q-15 13 -30 25 q-160 130 -178 135q-25 6 -33 -23z" />
<glyph unicode="&#xda;" horiz-adv-x="623" d="M90 468v445q0 122 2 262q1 40 1 88q1 40 1 45q0 12 -2 45q-2 35 -2 46q0 36 28 33q30 -2 33 -36q-1 10 -1 -103q-12 -541 -7 -633q13 -281 13 -284q13 -120 25 -164q21 -75 55 -108q52 -50 98 -47q59 4 85 39q46 62 59 191q5 52 0 212l-1 116q-4 184 -3 267q1 51 1 224 q-9 265 -10 286q-2 42 31 42q24 0 31 -30q5 -24 3 -167q-1 -66 -4 -306q1 -352 1 -369l1 -249q5 -214 -92 -283q-42 -30 -115 -30q-68 0 -123 61q-48 53 -77 147q-26 89 -31 260zM168 1530q5 -17 32 -10q7 1 77 48t113 72q55 31 46 65q-7 29 -33 23q-18 -5 -178 -135 q-15 -12 -30 -25q-29 -28 -27 -38z" />
<glyph unicode="&#xdb;" horiz-adv-x="623" d="M90 468v445q0 122 2 262q1 40 1 88q1 40 1 45q0 12 -2 45q-2 35 -2 46q0 36 28 33q30 -2 33 -36q-1 10 -1 -103q-12 -541 -7 -633q13 -281 13 -284q13 -120 25 -164q21 -75 55 -108q52 -50 98 -47q59 4 85 39q46 62 59 191q5 52 0 212l-1 116q-4 184 -3 267q1 51 1 224 q-9 265 -10 286q-2 42 31 42q24 0 31 -30q5 -24 3 -167q-1 -66 -4 -306q1 -352 1 -369l1 -249q5 -214 -92 -283q-42 -30 -115 -30q-68 0 -123 61q-48 53 -77 147q-26 89 -31 260zM166 1525q10 -13 29 1q7 5 49 68q68 122 75 117q4 -4 17 -34q43 -105 41 -101q27 -59 50 -57 q21 3 18 28q-2 22 -81 177l-18 34q-4 9 -9 16q-9 15 -20 16h-1q-6 0 -12 -4q-14 -11 -109 -184q-15 -28 -17 -32q-17 -38 -12 -45z" />
<glyph unicode="&#xdc;" horiz-adv-x="623" d="M90 468v445q0 122 2 262q1 40 1 88q1 40 1 45q0 12 -2 45q-2 35 -2 46q0 36 28 33q30 -2 33 -36q-1 10 -1 -103q-12 -541 -7 -633q13 -281 13 -284q13 -120 25 -164q21 -75 55 -108q52 -50 98 -47q59 4 85 39q46 62 59 191q5 52 0 212l-1 116q-4 184 -3 267q1 51 1 224 q-9 265 -10 286q-2 42 31 42q24 0 31 -30q5 -24 3 -167q-1 -66 -4 -306q1 -352 1 -369l1 -249q5 -214 -92 -283q-42 -30 -115 -30q-68 0 -123 61q-48 53 -77 147q-26 89 -31 260zM162 1569q0 34 45 37q10 0 27 -20q19 -22 6 -43q-16 -25 -37 -23q-22 2 -30 11q-11 13 -11 38 zM373 1582q17 26 37 23q22 -2 30 -11q11 -13 11 -38q0 -33 -44 -36q-10 -1 -28 20q-19 22 -6 42z" />
<glyph unicode="&#xdd;" horiz-adv-x="445" d="M54 1408q7 34 40 23q24 -8 74 -317q41 -253 49 -269q11 -23 60 249q52 301 50 293q11 47 36 47q32 0 20 -75q-3 -16 -30 -132q-29 -124 -38 -173q-10 -48 -40 -167q-29 -111 -32 -135q-9 -55 -5 -344q1 -42 5 -212q4 -162 4 -166q0 -30 -21 -30q-35 0 -35 35q0 -24 -1 98 q-2 103 -1 183q3 182 -1 413q-1 72 -55 333q2 -6 -57 226q-26 103 -22 120zM87 1530q5 -17 32 -10q7 1 77 48t113 72q55 31 46 65q-7 29 -33 23q-18 -5 -178 -135q-15 -12 -30 -25q-29 -28 -27 -38z" />
<glyph unicode="&#xe0;" horiz-adv-x="546" d="M40 25q-10 11 32 257q7 44 31 236q23 187 39 278q6 38 53 345q10 73 18 107q9 35 21 78q30 108 54 108q29 0 50 -60q38 -111 50 -189q47 -258 49 -281q4 -36 10 -96q12 -112 20 -186q30 -288 49 -556v-20q0 -19 -6 -27q-10 -16 -28 -18q-40 -4 -37 18q26 168 -15 337 q-10 21 -100 32q-101 11 -168 -15q-24 -17 -33 -68q-27 -126 -30 -199q3 -103 -11 -106q-28 -4 -48 25zM144 1705q-8 -34 47 -65q43 -25 113 -72t76 -48q28 -7 32 10q3 10 -27 38q-15 13 -30 25q-160 130 -178 135q-25 6 -33 -23zM149 521q-16 -84 9 -86q261 -9 263 20 q3 194 -42 528q-48 352 -87 341q-10 -3 -38 -173q-4 -19 -24 -120q-22 -104 -34 -172q-13 -73 -29 -199q-14 -119 -18 -139z" />
<glyph unicode="&#xe1;" horiz-adv-x="503" d="M39 23q-9 10 29 234q7 40 29 215q21 171 35 254q6 35 48 315q10 66 17 97q8 32 19 71q27 99 49 99q27 0 46 -55q35 -101 46 -172q42 -236 44 -257q4 -32 9 -87q11 -102 19 -170q27 -262 44 -507v-18q0 -17 -5 -25q-9 -14 -26 -16q-36 -4 -33 16q23 154 -14 308 q-9 19 -91 29q-92 10 -154 -14q-21 -15 -30 -62q-24 -115 -27 -181q3 -94 -10 -97q-26 -4 -44 23zM133 1395q5 -15 29 -9q7 1 70 44q64 43 104 66q50 28 42 59q-7 27 -31 21q-16 -5 -162 -123q-14 -11 -27 -23q-27 -25 -25 -35zM139 475q-15 -76 8 -78q238 -8 240 18 q2 177 -39 482q-43 321 -79 311q-9 -3 -35 -158q-3 -18 -22 -110q-20 -95 -31 -157q-11 -66 -26 -181q-13 -109 -16 -127z" />
<glyph unicode="&#xe2;" horiz-adv-x="504" d="M39 23q-9 10 29 235q7 40 29 215q21 171 35 254q6 35 49 315q9 67 16 98q8 32 19 71q28 99 50 99q26 0 45 -55q35 -101 46 -173q43 -235 45 -256q3 -33 9 -88q11 -102 18 -170q28 -263 45 -508v-18q0 -17 -6 -25q-9 -14 -25 -16q-37 -4 -34 16q24 154 -14 308 q-9 19 -91 29q-92 10 -153 -13q-22 -16 -31 -62q-24 -116 -27 -182q3 -94 -10 -97q-26 -4 -44 23zM139 476q-15 -77 8 -79q238 -8 240 19q3 177 -38 482q-44 321 -80 311q-9 -2 -34 -158q-4 -17 -22 -109q-20 -95 -31 -157q-12 -67 -27 -182q-13 -109 -16 -127zM139 1393 q9 -12 26 1q7 4 45 62q64 112 68 107q4 -1 16 -31q39 -96 37 -93q25 -53 46 -52q19 3 17 26q-2 20 -74 162q-9 15 -17 31q5 -8 -8 14q-8 14 -18 15h-1q-6 0 -11 -4q-13 -10 -100 -168q-13 -23 -15 -28q-16 -36 -11 -42z" />
<glyph unicode="&#xe3;" horiz-adv-x="503" d="M39 23q-9 10 29 234q7 40 28 215q21 170 36 253q5 34 48 314q9 67 17 98t19 71q27 98 49 98q26 0 45 -55q35 -101 46 -172q43 -235 45 -256q3 -33 9 -87q11 -102 18 -170q27 -262 45 -506v-18q0 -17 -6 -25q-9 -14 -25 -16q-37 -4 -34 16q24 153 -14 307q-9 19 -91 29 q-92 10 -153 -13q-22 -16 -30 -62q-24 -115 -27 -182q3 -93 -10 -96q-26 -4 -44 23zM79 1429q1 38 26 69q26 35 74 33q31 -2 65 -36q7 -8 20 -23q12 -16 19 -23q37 -37 79 -30q33 4 33 62q0 8 -13 23q-10 13 -2 27q5 11 22 8q19 -4 26 -25q23 -62 -17 -102q-29 -28 -61 -28 q-34 0 -65 18q-24 14 -49 40q-33 36 -38 40q-27 19 -47 12q-31 -12 -33 -42q-1 -10 5 -25q5 -15 5 -19q2 -23 -18 -26q-33 -3 -31 47zM138 474q-14 -76 9 -78q237 -8 239 18q3 177 -38 481q-44 321 -79 311q-10 -3 -35 -158q-4 -17 -22 -109q-20 -95 -31 -157 q-12 -66 -26 -181q-13 -108 -17 -127z" />
<glyph unicode="&#xe4;" horiz-adv-x="504" d="M39 23q-9 10 29 235q7 40 29 215q21 171 35 254q6 35 49 315q9 67 16 98q8 32 19 71q28 99 50 99q26 0 45 -55q35 -101 46 -173q43 -235 45 -256q3 -33 9 -88q11 -102 18 -170q28 -263 45 -508v-18q0 -17 -6 -25q-9 -14 -25 -16q-37 -4 -34 16q24 154 -14 308 q-9 19 -91 29q-92 10 -153 -13q-22 -16 -31 -62q-24 -116 -27 -182q3 -94 -10 -97q-26 -4 -44 23zM130 1433q0 31 41 34q9 0 24 -18q18 -20 6 -40q-15 -22 -34 -21q-20 2 -27 10q-10 12 -10 35zM139 476q-15 -77 8 -79q238 -8 240 19q3 177 -38 482q-44 321 -80 311 q-9 -2 -34 -158q-4 -17 -22 -109q-20 -95 -31 -157q-12 -67 -27 -182q-13 -109 -16 -127zM322 1445q16 24 34 21q20 -2 28 -10q10 -12 10 -35q0 -30 -41 -33q-9 -1 -25 19q-18 20 -6 38z" />
<glyph unicode="&#xe5;" horiz-adv-x="501" d="M37 23q-7 13 29 234q7 40 29 216q21 171 35 254q7 34 49 314q11 76 16 98q8 32 19 71q28 98 50 98q26 0 45 -54q35 -101 46 -172q45 -270 43 -248q1 -19 10 -97q12 -102 19 -169q28 -263 44 -508v-18q0 -16 -4 -25q-9 -14 -27 -16q-36 -4 -33 16q24 154 -14 309 q0 12 -91 29q-92 16 -153 -14q-19 -9 -31 -62q-24 -116 -27 -182q-4 -95 -10 -95q-31 0 -44 21zM137 476q-15 -77 8 -79q240 -6 241 18q1 178 -40 482q-42 322 -78 311q-9 -3 -36 -158q-2 -17 -21 -108q-20 -96 -31 -158q-11 -67 -27 -181q-18 -143 -16 -127zM181 1528 q-29 -45 13 -95q38 -44 61 -44q100 7 100 81q0 56 -26 85q-16 20 -66 25q-45 5 -82 -52zM206 1515q25 40 58 38q35 -4 47 -18q18 -21 18 -61q0 -53 -71 -57q-16 -1 -43 32q-30 34 -9 66z" />
<glyph unicode="&#xe8;" horiz-adv-x="448" d="M98 1191q-8 110 41 112q97 4 133 0q5 -1 29 -1q25 0 38 -1q47 -4 38 -25q-6 -15 -123 -11q-111 2 -109 -24l-4 -264q9 -211 15 -225q0 -9 111 1q16 0 29 -26q12 -26 -7 -25q-73 4 -90 1q-45 -7 -45 -26q-14 -478 -13 -517q1 -98 16 -112q13 -10 119 -5q122 6 118 -28 q3 -20 -200 -14q-86 -2 -89 5q-5 6 -4 102q-1 21 0 135q2 128 2 171q-2 622 -5 777zM110 1551q-7 -31 43 -59q39 -23 103 -66q63 -42 69 -43q25 -7 29 9q3 9 -25 34q-13 12 -27 23q-146 119 -162 123q-23 6 -30 -21z" />
<glyph unicode="&#xe9;" horiz-adv-x="448" d="M98 1191q-8 110 41 112q97 4 133 0q5 -1 29 -1q25 0 38 -1q47 -4 38 -25q-6 -15 -123 -11q-111 2 -109 -24l-4 -264q9 -211 15 -225q0 -9 111 1q16 0 29 -26q12 -26 -7 -25q-73 4 -90 1q-45 -7 -45 -26q-14 -478 -13 -517q1 -98 16 -112q13 -10 119 -5q122 6 118 -28 q3 -20 -200 -14q-86 -2 -89 5q-5 6 -4 102q-1 21 0 135q2 128 2 171q-2 622 -5 777zM109 1392q5 -16 29 -9q7 1 70 43q64 43 103 66q50 28 42 59q-6 27 -30 21q-16 -4 -162 -123q-14 -11 -27 -23q-27 -25 -25 -34z" />
<glyph unicode="&#xea;" horiz-adv-x="446" d="M98 1187q-8 109 41 111q97 5 132 0q6 -1 29 -1q25 0 38 -1q47 -3 38 -24q-6 -16 -123 -12q-110 3 -109 -24l-3 -262q9 -211 14 -224q1 -9 112 1q15 0 28 -27q13 -25 -6 -24q-73 3 -90 1q-46 -8 -46 -27q-13 -475 -12 -514q1 -98 16 -112q13 -10 118 -5q121 6 118 -29 q3 -19 -200 -13q-85 -2 -88 5q-5 6 -4 102q-1 21 0 134q2 128 2 170q-2 621 -5 775zM114 1381q9 -13 25 0q7 5 45 61q69 105 68 106q4 -3 15 -30q40 -96 38 -92q23 -54 44 -51q19 2 17 26q-1 19 -74 160l-16 30l-8 14q-8 14 -18 15q-7 0 -12 -4q-12 -10 -98 -166 q-16 -30 -16 -29q-16 -34 -10 -40z" />
<glyph unicode="&#xeb;" horiz-adv-x="446" d="M98 1186q-8 110 41 111q97 5 132 0q6 -1 29 -1h38q46 -4 38 -25q-6 -15 -123 -12q-110 3 -109 -23l-3 -263q9 -210 14 -224q1 -9 112 1q15 0 28 -26q12 -26 -7 -25q-72 4 -89 1q-46 -7 -46 -26q-13 -476 -12 -515q1 -97 16 -111q13 -10 118 -5q121 6 118 -29 q2 -19 -200 -13q-85 -2 -89 5q-4 6 -3 102q-1 21 0 134q2 128 2 170q-2 620 -5 774zM114 1421q0 31 41 34q9 0 25 -18q17 -20 5 -39q-14 -23 -33 -21q-20 2 -28 10q-10 12 -10 34zM306 1433q15 24 33 21q20 -2 27 -10q10 -12 10 -34q0 -30 -40 -33q-9 -1 -25 18 q-17 20 -5 38z" />
<glyph unicode="&#xec;" horiz-adv-x="313" d="M37 1545q-7 -31 43 -59q39 -22 102 -65q64 -43 69 -43q26 -7 29 9q3 9 -24 34q-14 12 -27 23q-146 118 -162 122q-22 6 -30 -21zM121 1261q-1 38 21 39q14 1 21.5 -9t6.5 -25q0 -6 -5 -179q0 -344 5 -414q5 -61 5 -529q0 -34 2 -68q3 -30 3 -53.5t-14 -23.5q-15 -4 -29 0 q-14 7 -13.5 20.5t1.5 41.5q0 16 1 37q2 91 2 119q0 20 2 69q2 43 1 69q-1 11 1 115q1 100 -3 181q-3 80 -5 181q-2 121 -2 124l2 180q-2 116 -3 125z" />
<glyph unicode="&#xed;" horiz-adv-x="313" d="M32 1388q4 -15 29 -9q6 1 70 44q63 43 102 65q50 28 42 59q-6 27 -30 21q-16 -4 -161 -122q-14 -11 -28 -23q-26 -26 -24 -35zM135 1262q-1 38 21 39q14 1 21.5 -9t6.5 -24q0 -7 -5 -179q0 -345 5 -415q5 -61 5 -530q0 -34 2 -68q3 -30 3 -53.5t-14 -23.5q-15 -4 -29 0 q-14 7 -13.5 20.5t1.5 41.5q0 16 1 37q2 91 2 119q0 20 2 69q2 44 1 69q0 -3 1 116q1 100 -3 180q-3 81 -5 182q-2 121 -2 125l2 180q-2 116 -3 124z" />
<glyph unicode="&#xee;" horiz-adv-x="322" d="M35 1389q9 -11 26 1q6 5 45 62q65 110 68 107q4 -4 15 -31q40 -96 38 -92q24 -54 45 -52q20 3 17 26q-2 20 -74 161q-8 15 -16 31q-3 7 -9 14q-8 14 -18 15h-1q-5 0 -11 -4q-12 -10 -99 -167q-12 -21 -16 -29q-15 -35 -10 -42zM137 1267q-1 39 21 40q14 0 21.5 -10 t6.5 -24q0 -7 -5 -180q0 -346 5 -416q5 -61 5 -532q0 -35 2 -69q3 -30 3 -53.5t-14 -23.5q-15 -4 -29 0q-14 7 -13.5 21t1.5 41q0 16 1 37q2 92 2 120q0 20 2 69q2 44 1 70q0 -3 1 115q1 101 -3 182q-3 81 -5 183q-2 121 -2 125l2 180q-2 117 -3 125z" />
<glyph unicode="&#xef;" horiz-adv-x="322" d="M30 1423q0 31 41 34q9 0 24 -18q18 -20 6 -39q-15 -23 -34 -21q-20 2 -27 10q-10 12 -10 34zM140 1262q-1 38 21 39q14 1 21.5 -9t6.5 -25q0 -6 -5 -179q0 -344 5 -414q5 -61 5 -530q0 -34 2 -68q3 -30 3 -53.5t-14 -23.5q-15 -4 -29 0q-14 7 -13.5 20.5t1.5 41.5 q0 16 1 37q2 91 2 119q0 20 2 69q2 44 1 69q0 -3 1 115q1 100 -3 181q-3 81 -5 182q-2 121 -2 124l2 180q-2 117 -3 125zM221 1435q16 24 34 21q20 -2 27 -10q10 -12 10 -34q0 -30 -40 -33q-9 -1 -25 18q-17 20 -6 38z" />
<glyph unicode="&#xf1;" horiz-adv-x="592" d="M90 84l3 607v223q2 281 2 319q0 72 28 73q25 1 51 -93q2 -6 49 -204q47 -201 56 -230q5 -24 29 -106q25 -90 41 -145q16 -60 37 -144q22 -84 24 -92q40 -146 44 -133q3 7 3 111l-7 548l-6 263q-1 164 -1 187q1 35 23 35q28 0 28 -60q0 -51 -1 -657q0 -36 3 -183 q1 -21 0 -72q-1 -58 -1 -76q7 -107 4 -130q-5 -73 -7 -84q-9 -41 -33 -41q-18 0 -48 106q-167 596 -179 659q-63 307 -65 317q-8 35 -18 64q-13 33 -14 11q-2 -20 1 -81q5 -72 5 -93v-467q0 -141 2 -260q6 -240 2 -239q-9 -14 -27 -16q-16 -1 -22 9q-6 12 -6 74zM116 1429 q1 38 26 69q26 35 75 33q31 -2 64 -36q8 -8 20 -23q12 -16 19 -23q37 -36 80 -30q32 4 32 62q0 8 -12 23q-10 13 -3 27q5 11 22 8q19 -4 26 -24q23 -63 -17 -103q-28 -28 -61 -28q-34 0 -65 18q-23 14 -49 40q-33 36 -37 40q-28 19 -48 12q-31 -12 -32 -42q-1 -10 4 -25 q6 -15 6 -19q1 -23 -19 -26q-32 -3 -31 47z" />
<glyph unicode="&#xf2;" horiz-adv-x="553" d="M72 702q6 226 10 267q11 124 32 192q21 73 54 106q36 36 96 34q53 -1 86 -31q40 -37 63 -117q43 -147 48 -195q22 -197 16 -416q-14 -184 -20 -221q-17 -118 -47 -192q-24 -60 -50 -85q-44 -46 -96 -44q-63 3 -106 68q-23 35 -50 150q-13 60 -28 262q-10 158 -8 222z M123 795q-6 -217 1 -308q11 -147 27 -224q26 -129 32 -145q26 -70 81 -72q64 -2 107 110q39 103 47 214q10 192 11 259q0 26 1 72q0 65 -5 185q-6 99 -22 162q-29 110 -42 134q-41 76 -97 77q-130 3 -141 -464zM153 1547q-7 -31 43 -59q39 -22 103 -65q63 -43 69 -44 q25 -6 29 9q2 9 -25 35q-13 12 -27 23q-145 118 -162 122q-22 6 -30 -21z" />
<glyph unicode="&#xf3;" horiz-adv-x="554" d="M72 704q6 227 10 268q11 124 32 192q22 73 54 106q37 36 97 35q52 -1 86 -32q40 -37 63 -117q43 -147 48 -195q22 -198 16 -418q-14 -185 -20 -221q-17 -118 -47 -193q-24 -60 -50 -85q-44 -46 -96 -44q-64 3 -107 68q-22 36 -50 150q-13 60 -28 263q-10 159 -8 223z M123 797q-6 -217 1 -308q12 -148 27 -225q26 -129 32 -146q26 -70 82 -72q63 -1 107 110q39 103 46 215q11 192 12 259q0 27 1 73q0 65 -5 185q-6 100 -22 163q-29 110 -42 134q-42 76 -97 77q-130 3 -142 -465zM153 1392q4 -16 29 -9q6 1 70 44q64 42 103 65q50 28 42 59 q-7 27 -30 21q-17 -4 -162 -123l-28 -22q-26 -26 -24 -35z" />
<glyph unicode="&#xf4;" horiz-adv-x="552" d="M72 701q6 226 10 267q11 124 31 191q22 73 55 106q36 36 96 34q52 -1 86 -31q40 -37 63 -116q42 -147 48 -195q21 -197 16 -416q-15 -184 -20 -220q-17 -118 -47 -192q-25 -60 -50 -86q-44 -45 -96 -43q-64 3 -106 68q-23 35 -50 149q-14 60 -28 262q-10 158 -8 222z M123 487q12 -147 28 -224q26 -129 31 -145q27 -70 82 -72q63 -2 107 110q39 102 46 214q11 191 12 258q0 26 1 72q0 65 -6 184q-5 100 -21 163q-29 109 -42 133q-42 76 -97 77q-130 3 -141 -463q-6 -217 0 -307zM129 1382q9 -12 26 1q7 4 45 61q62 110 68 106q2 0 15 -30 q39 -96 37 -92q25 -53 45 -52q19 3 17 26q-2 20 -74 160q-8 16 -14 27q-3 7 -10 18q-8 14 -18 15h-1q-6 0 -11 -4q-13 -10 -99 -166q-11 -21 -15 -29q-16 -35 -11 -41z" />
<glyph unicode="&#xf5;" horiz-adv-x="553" d="M72 703q6 226 10 267q11 125 32 192q21 73 54 106q36 36 96 35q53 -1 87 -32q40 -37 62 -117q43 -147 48 -195q22 -197 17 -417q-15 -184 -20 -220q-17 -119 -47 -193q-25 -60 -50 -85q-45 -46 -97 -44q-63 3 -106 68q-23 36 -50 150q-13 60 -28 263q-10 158 -8 222z M97 1425q1 38 26 69q26 35 74 33q31 -2 65 -36q7 -8 20 -23q11 -16 19 -23q36 -36 79 -30q32 5 32 62q0 8 -12 24q-10 12 -3 26q5 11 22 8q19 -4 26 -24q23 -63 -17 -103q-28 -27 -61 -27q-34 0 -64 17q-24 14 -50 40q-32 36 -37 40q-27 19 -47 12q-31 -12 -33 -42 q-1 -10 5 -25q5 -15 5 -19q2 -22 -18 -25q-33 -4 -31 46zM123 796q-6 -217 1 -308q11 -147 27 -225q26 -129 32 -145q26 -70 81 -72q64 -1 108 110q39 103 46 215q11 191 12 258q0 27 1 73q0 65 -6 185q-5 99 -22 162q-29 110 -41 134q-42 76 -98 77q-130 3 -141 -464z" />
<glyph unicode="&#xf6;" horiz-adv-x="554" d="M72 705q6 227 10 268q11 125 32 192q22 74 54 107q37 36 97 34q53 -1 86 -32q41 -36 63 -116q43 -148 49 -196q21 -198 16 -418q-15 -185 -20 -222q-17 -118 -47 -193q-25 -60 -50 -85q-45 -46 -97 -44q-64 3 -107 68q-22 36 -50 151q-13 60 -28 263q-10 158 -8 223z M123 798q-6 -218 1 -309q12 -147 27 -225q26 -129 32 -146q26 -70 82 -72q64 -1 107 111q40 103 47 215q11 192 12 259q0 27 1 73q0 65 -6 185q-5 100 -22 163q-29 110 -42 134q-41 77 -97 77q-130 4 -142 -465zM144 1429q0 31 41 34q9 0 24 -18q18 -20 6 -39 q-15 -23 -34 -21q-20 1 -27 10q-10 12 -10 34zM336 1441q15 24 34 21q20 -2 27 -10q10 -12 10 -35q0 -30 -40 -32q-9 -1 -26 18q-17 20 -5 38z" />
<glyph unicode="&#xf7;" d="M40 721q9 16 87 14q154 -5 221 -1q94 6 112 -16q38 -51 -98 -54q-13 0 -97 -4q-80 -5 -111 -5q-92 0 -109 24q-15 24 -5 42zM207 498q-1 10 20 28q22 18 42 5q26 -17 23 -37q-2 -22 -11 -30q-13 -11 -38 -11q-33 1 -36 45zM208 898q2 22 11 30q13 10 38 10q34 0 37 -45 q0 -10 -20 -27q-22 -19 -43 -6q-25 17 -23 38z" />
<glyph unicode="&#xf9;" horiz-adv-x="584" d="M90 427v406q0 111 2 239q1 36 1 80q1 36 1 41q0 11 -2 41q-2 32 -2 42q0 33 26 30q27 -2 30 -33q-1 9 -1 -94q-11 -493 -7 -577q12 -256 12 -259q12 -110 23 -150q19 -68 50 -98q48 -46 90 -43q53 4 77 36q42 56 54 174q4 47 0 193l-1 106q-4 168 -3 243q1 47 1 205 q-8 241 -9 261q-2 38 28 38q22 0 29 -27q4 -22 2 -153q-1 -60 -3 -279q1 -321 1 -336v-228q5 -195 -83 -258q-39 -27 -105 -27q-62 0 -112 56q-44 48 -71 134q-23 81 -28 237zM162 1555q-7 -31 43 -59q39 -23 103 -66t69 -44q26 -6 29 9q3 10 -24 35q-14 12 -27 23 q-146 119 -163 123q-23 6 -30 -21z" />
<glyph unicode="&#xfa;" horiz-adv-x="583" d="M90 426v405q0 111 2 238q1 36 1 80q1 36 1 41q0 11 -2 41q-2 32 -2 42q0 33 25 30q28 -2 30 -33q0 9 0 -94q-11 -492 -7 -576q12 -255 12 -258q12 -109 23 -149q19 -68 50 -98q47 -46 89 -43q54 3 77 35q42 57 54 174q5 47 0 193l-1 106q-4 167 -3 242q1 47 1 204 q-8 241 -9 260q-2 39 28 39q22 0 29 -28q4 -22 2 -152q-1 -60 -3 -278q1 -320 1 -336v-226q5 -195 -83 -258q-38 -27 -105 -27q-62 0 -112 55q-43 49 -70 134q-23 81 -28 237zM161 1392q5 -16 29 -9q6 1 70 44q64 42 103 65q50 28 42 59q-7 27 -30 21q-17 -4 -162 -123 q-14 -11 -27 -22q-27 -26 -25 -35z" />
<glyph unicode="&#xfb;" horiz-adv-x="584" d="M90 426v406q0 111 2 239q1 36 1 80q1 36 1 41q0 11 -2 41q-2 32 -2 42q0 33 26 30q27 -2 30 -33q-1 9 -1 -94q-11 -493 -7 -577q12 -256 12 -258q12 -110 23 -150q19 -68 50 -98q47 -46 89 -43q54 4 78 35q42 57 54 175q4 47 0 193l-1 105q-4 168 -3 244q1 46 1 204 q-8 241 -9 260q-2 39 28 39q22 0 28 -28q5 -22 3 -152q-1 -60 -4 -279q1 -320 1 -336l1 -227q5 -195 -84 -258q-38 -27 -105 -27q-61 0 -112 56q-43 48 -70 134q-23 81 -28 236zM159 1390q9 -12 27 0q6 5 44 62q62 112 69 107q3 -4 15 -31q39 -96 38 -92q24 -54 45 -52 q19 3 16 26q-1 20 -73 161q-9 15 -17 31q-3 8 -8 14q-8 14 -18 15h-1q-6 0 -11 -4q-13 -10 -99 -167q-14 -26 -16 -29q-15 -35 -11 -41z" />
<glyph unicode="&#xfc;" horiz-adv-x="582" d="M90 424v404q0 110 2 237q1 37 1 80q1 36 1 41q0 11 -2 41q-2 31 -2 41q0 33 25 30q28 -2 30 -32q-1 9 -1 -94q-10 -490 -6 -574q12 -254 12 -257q12 -109 23 -149q19 -68 49 -98q48 -45 89 -42q54 3 77 35q42 56 54 173q4 47 0 192l-1 106q-4 166 -3 242q1 46 1 203 q-8 240 -9 259q-2 38 28 38q22 0 28 -27q5 -22 3 -152q-1 -59 -4 -277q1 -319 1 -334l1 -226q5 -194 -83 -257q-38 -27 -105 -27q-61 0 -111 55q-44 48 -70 134q-23 80 -28 235zM154 1422q0 31 41 34q9 0 25 -18q17 -20 5 -39q-14 -23 -33 -21q-20 2 -28 10q-10 12 -10 34z M346 1434q15 24 33 21q20 -2 27 -10q10 -12 10 -34q0 -30 -40 -33q-9 -1 -25 18q-17 20 -5 38z" />
<glyph unicode="&#xfd;" horiz-adv-x="415" d="M54 1284q6 31 36 21q22 -7 68 -289q37 -231 44 -245q10 -21 55 227q47 274 46 267q10 43 32 43q30 0 19 -68q-3 -15 -28 -121q-26 -113 -34 -158q-9 -43 -37 -152q-26 -101 -29 -123q-8 -50 -5 -314q1 -38 5 -193q4 -148 4 -152q0 -27 -19 -27q-32 0 -32 32q0 -22 -1 89 q-2 94 -1 167q3 166 -1 377q-1 66 -50 304q2 -6 -52 206q-24 94 -20 109zM84 1395q4 -15 29 -9q6 1 70 44t103 66q50 28 42 59q-6 27 -30 21q-16 -4 -162 -123q-14 -11 -28 -23q-26 -25 -24 -35z" />
<glyph unicode="&#xff;" horiz-adv-x="413" d="M54 1279q6 31 36 21q22 -7 67 -288q37 -230 45 -244q10 -21 54 226q47 273 46 266q10 43 32 43q29 0 19 -68q-3 -15 -28 -120q-26 -113 -34 -157q-9 -44 -37 -152q-26 -101 -29 -123q-8 -50 -4 -312q1 -39 4 -193q4 -147 4 -151q0 -27 -19 -27q-32 0 -32 32q0 -22 -1 89 q-2 93 -1 166q3 165 -1 375q-1 66 -50 303q2 -6 -51 205q-24 94 -20 109zM75 1425q0 31 40 34q9 0 25 -18q17 -20 5 -39q-14 -23 -33 -21q-20 2 -27 10q-10 12 -10 34zM266 1437q16 24 34 21q20 -2 27 -10q10 -12 10 -34q0 -30 -40 -33q-9 -1 -25 18q-18 20 -6 38z" />
<glyph unicode="&#x178;" horiz-adv-x="445" d="M54 1408q7 34 40 23q24 -8 74 -317q41 -253 49 -269q11 -23 60 249q52 301 50 293q11 47 36 47q32 0 20 -75q-3 -16 -30 -132q-29 -124 -38 -173q-10 -48 -40 -167q-29 -111 -32 -135q-9 -55 -5 -344q1 -42 5 -212q4 -162 4 -166q0 -30 -21 -30q-35 0 -35 35q0 -24 -1 98 q-2 103 -1 183q3 182 -1 413q-1 72 -55 333q2 -6 -57 226q-26 103 -22 120zM77 1569q0 34 45 37q10 0 27 -20q19 -22 6 -43q-16 -25 -37 -23q-22 2 -30 11q-11 13 -11 38zM288 1582q17 26 37 23q22 -2 30 -11q11 -13 11 -38q0 -33 -44 -36q-10 -1 -28 20q-19 22 -6 42z" />
<glyph unicode="&#x2c6;" horiz-adv-x="655" d="M42 1275q-12 -21 5 -44q5 -9 43 5q32 24 90 79q126 136 160 139q28 3 143 -130q75 -91 83 -95q53 -15 56 13q3 18 -9 32q-3 4 -18 18l-16 14l-63 58q-156 167 -174 158q-21 4 -213 -172z" />
<glyph unicode="&#x2dc;" horiz-adv-x="724" d="M31 646q2 72 47 130q50 64 140 60q57 -3 120 -67q14 -14 37 -43q22 -29 35 -42q69 -68 148 -56q62 9 61 115q0 16 -24 44q-18 23 -5 50q10 20 41 15q35 -7 50 -47q13 -36 2 -101q-11 -66 -36 -90q-51 -51 -113 -51t-119 34q-45 26 -92 74q-44 51 -70 74q-51 36 -88 21 q-57 -22 -61 -77q-1 -19 8 -45q11 -29 11 -36q3 -43 -34 -48q-25 -3 -43 30q-16 29 -15 56z" />
<glyph unicode="&#x2000;" horiz-adv-x="895" />
<glyph unicode="&#x2001;" horiz-adv-x="1790" />
<glyph unicode="&#x2002;" horiz-adv-x="895" />
<glyph unicode="&#x2003;" horiz-adv-x="1790" />
<glyph unicode="&#x2004;" horiz-adv-x="596" />
<glyph unicode="&#x2005;" horiz-adv-x="447" />
<glyph unicode="&#x2006;" horiz-adv-x="298" />
<glyph unicode="&#x2007;" horiz-adv-x="298" />
<glyph unicode="&#x2008;" horiz-adv-x="223" />
<glyph unicode="&#x2009;" horiz-adv-x="358" />
<glyph unicode="&#x200a;" horiz-adv-x="99" />
<glyph unicode="&#x2010;" d="M67 615q9 14 87 12q154 -4 221 -1q94 5 112 -13q38 -44 -98 -46q-13 0 -97 -4q-80 -4 -111 -4q-92 0 -109 20q-15 21 -5 36z" />
<glyph unicode="&#x2011;" d="M67 615q9 14 87 12q154 -4 221 -1q94 5 112 -13q38 -44 -98 -46q-13 0 -97 -4q-80 -4 -111 -4q-92 0 -109 20q-15 21 -5 36z" />
<glyph unicode="&#x2012;" d="M67 615q9 14 87 12q154 -4 221 -1q94 5 112 -13q38 -44 -98 -46q-13 0 -97 -4q-80 -4 -111 -4q-92 0 -109 20q-15 21 -5 36z" />
<glyph unicode="&#x2013;" d="M40 502q9 16 87 14q154 -5 221 -1q94 6 112 -16q38 -51 -98 -54q-13 0 -97 -4q-80 -5 -111 -5q-92 0 -109 24q-15 24 -5 42z" />
<glyph unicode="&#x2014;" horiz-adv-x="1168" d="M40 502q9 16 87 14q794 -5 861 -1q94 6 112 -16q38 -51 -98 -54q-13 0 -97 -4q-720 -5 -751 -5q-92 0 -109 24q-15 24 -5 42z" />
<glyph unicode="&#x2018;" horiz-adv-x="193" d="M34 1344q4 58 37 119q16 30 47 58q32 28 40 16q5 -8 -22 -57q-30 -58 -34 -90q-2 -28 26 -70q22 -34 -2 -67q-10 -14 -38 -15q-32 -1 -47 27q-11 19 -7 79z" />
<glyph unicode="&#x2019;" horiz-adv-x="192" d="M35 1242q-5 7 21 57q31 58 34 90q3 27 -25 70q-22 33 2 66q10 15 38 16q32 0 47 -27q10 -19 7 -80q-4 -58 -37 -118q-16 -30 -47 -58q-32 -29 -40 -16z" />
<glyph unicode="&#x201a;" horiz-adv-x="192" d="M35 -181q-5 7 21 57q31 58 34 90q3 27 -25 70q-22 33 2 66q10 15 38 16q32 0 47 -27q10 -19 7 -80q-4 -58 -37 -118q-16 -30 -47 -58q-32 -29 -40 -16z" />
<glyph unicode="&#x201c;" horiz-adv-x="397" d="M34 1372q4 58 37 119q16 30 47 58q32 28 40 16q5 -8 -22 -57q-30 -58 -34 -90q-2 -28 26 -70q22 -34 -2 -67q-10 -14 -38 -15q-32 -1 -47 27q-11 19 -7 79zM238 1372q4 58 37 119q16 30 47 58q32 28 40 16q5 -8 -22 -57q-30 -58 -34 -90q-2 -28 26 -70q22 -34 -2 -67 q-10 -14 -38 -15q-32 -1 -47 27q-11 19 -7 79z" />
<glyph unicode="&#x201d;" horiz-adv-x="396" d="M35 1248q-5 7 21 57q31 58 34 90q3 27 -25 70q-22 33 2 66q10 15 38 16q32 0 47 -27q10 -19 7 -80q-4 -58 -37 -118q-16 -30 -47 -58q-32 -29 -40 -16zM239 1248q-5 7 21 57q31 58 34 90q3 27 -25 70q-22 33 2 66q10 15 38 16q32 0 47 -27q10 -19 7 -80q-4 -58 -37 -118 q-16 -30 -47 -58q-32 -29 -40 -16z" />
<glyph unicode="&#x201e;" horiz-adv-x="396" d="M35 -181q-5 7 21 57q31 58 34 90q3 27 -25 70q-22 33 2 66q10 15 38 16q32 0 47 -27q10 -19 7 -80q-4 -58 -37 -118q-16 -30 -47 -58q-32 -29 -40 -16zM239 -181q-5 7 21 57q31 58 34 90q3 27 -25 70q-22 33 2 66q10 15 38 16q32 0 47 -27q10 -19 7 -80q-4 -58 -37 -118 q-16 -30 -47 -58q-32 -29 -40 -16z" />
<glyph unicode="&#x202f;" horiz-adv-x="358" />
<glyph unicode="&#x2039;" horiz-adv-x="422" d="M40 717q-10 -23 181 -225l66 -82l17 -20q16 -20 19 -23q18 -16 38 -13q31 5 13 51q-5 9 -107 129q-168 175 -162 179q-7 29 163 230q63 72 91 114q24 35 15 43q-27 21 -51 5l-86 -113q-201 -248 -197 -275z" />
<glyph unicode="&#x203a;" horiz-adv-x="422" d="M48 405q-18 -46 13 -51q20 -3 38 13q3 3 19 23l17 20l66 82q191 202 181 225q4 27 -197 275l-86 113q-24 16 -51 -5q-9 -8 15 -43q28 -42 91 -114q170 -201 163 -230q6 -4 -162 -179q-102 -120 -107 -129z" />
<glyph unicode="&#x205f;" horiz-adv-x="447" />
<glyph unicode="&#x20ac;" horiz-adv-x="670" d="M97 818q-10 -14 5 -32q10 -11 56 -16q-1 -67 -2 -111q-86 -8 -56 -37q13 -14 56 -15q-2 -359 61 -491q55 -116 162 -116q114 0 186 99q65 88 37 131q-42 32 -51 -14q-2 -76 -100 -133q-107 -62 -177 47q-51 80 -58 275q-2 59 -10 204h3q67 2 219 -2q76 -2 85 9 q10 14 -6 31q-16 19 -106 19q-30 0 -102 -2q-85 -3 -95 -3q-3 57 -3 88v19h8q31 -1 110 2q82 3 96 3q134 1 95 39q-17 17 -109 13q-64 -3 -200 1q1 170 7 236q6 85 47 204q39 113 137 108q142 -8 137 -128q0 -16 15 -23q14 -6 22 2q19 20 1 81q-23 77 -108 113 q-77 33 -148 -8q-59 -33 -83 -93q-68 -165 -68 -449v-41q-53 3 -63 -10z" />
<glyph unicode="&#x25fc;" horiz-adv-x="1305" d="M0 0v1305h1305v-1305h-1305z" />
</font>
</defs>
</svg>
